<?xml version="1.0" standalone="no"?><!DOCTYPE svg PUBLIC "-//W3C//DTD SVG 1.1//EN" "http://www.w3.org/Graphics/SVG/1.1/DTD/svg11.dtd"><svg t="1751963421446" class="icon" viewBox="0 0 1024 1024" version="1.1" xmlns="http://www.w3.org/2000/svg" p-id="152463" xmlns:xlink="http://www.w3.org/1999/xlink" width="200" height="200"><path d="M-620.46196716 556.15459285c0 601.60005919 487.6947026 1089.321357 1089.32135923 1089.32135925s1089.321357-487.6947026 1089.32135702-1089.32135925S1070.48604646-533.16676415 468.85939207-533.16676415-620.46196716-45.47206154-620.46196716 556.15459285z m0 0" fill="#FFFFFF" p-id="152464"></path><path d="M-331.03119706 556.15459285c0 441.76555282 358.12503409 799.75761308 799.89058913 799.75761531s799.89058692-358.12503409 799.89058694-799.89058911-358.01865551-799.75761308-799.89058694-799.75761308S-331.03119706 114.38904004-331.03119706 556.15459285z m0 0" fill="#379667" p-id="152465"></path><path d="M-265.90063068 556.15459285c0 405.78284341 328.95058191 734.76002051 734.76002275 734.76002274S1203.61941258 961.9640315 1203.61941258 556.15459285 874.66883068-178.60542768 468.85939207-178.60542768-265.90063068 150.34515425-265.90063068 556.15459285z m0 0" fill="#EDEDED" p-id="152466"></path><path d="M571.84894962 198.32564808m-177.36994352 0a177.36994509 177.36994509 0 1 0 354.73988862 0 177.36994509 177.36994509 0 1 0-354.73988862 0Z" fill="#0401CA" p-id="152467"></path><path d="M571.84894962 198.32564808m-133.4007117 0a133.4007117 133.4007117 0 1 0 266.80142498 0 133.4007117 133.4007117 0 1 0-266.80142498 0Z" fill="#FFFDFA" p-id="152468"></path><path d="M530.13789888 161.0003218m-16.79639596 0a16.79639597 16.79639597 0 1 0 33.59279351 0 16.79639597 16.79639597 0 1 0-33.59279351 0Z" fill="#1F6214" p-id="152469"></path><path d="M612.25361547 153.53525779m-16.79639755 0a16.79639597 16.79639597 0 1 0 33.5927935 0 16.79639597 16.79639597 0 1 0-33.5927935 0Z" fill="#7C777C" p-id="152470"></path><path d="M571.84894962 198.32564808m-16.79639596 0a16.79639597 16.79639597 0 1 0 33.59279351 0 16.79639597 16.79639597 0 1 0-33.59279351 0Z" fill="#050EC8" p-id="152471"></path><path d="M625.31747862 211.38951124m-16.79639594 0a16.79639597 16.79639597 0 1 0 33.59279192 0 16.79639597 16.79639597 0 1 0-33.59279192 0Z" fill="#FFFEFF" p-id="152472"></path><path d="M526.40536767 235.65097279m-16.79639753 0a16.79639597 16.79639597 0 1 0 33.5927935 0 16.79639597 16.79639597 0 1 0-33.5927935 0Z" fill="#693919" p-id="152473"></path><path d="M584.25962113 258.04616793m-16.79639596 0a16.79639597 16.79639597 0 1 0 33.59279194 0 16.79639597 16.79639597 0 1 0-33.59279194 0Z" fill="#DC7A20" p-id="152474"></path><path d="M808.28622291 495.06198255m-177.36994509 0a177.36994509 177.36994509 0 1 0 354.73989018 0 177.36994509 177.36994509 0 1 0-354.73989018 0Z" fill="#FD6607" p-id="152475"></path><path d="M808.28622291 495.06198255m-133.40071327 0a133.4007117 133.4007117 0 1 0 266.80142498 0 133.4007117 133.4007117 0 1 0-266.80142498 0Z" fill="#FFFDFA" p-id="152476"></path><path d="M766.57517218 457.73665783m-16.79639753 0a16.79639597 16.79639597 0 1 0 33.5927935 0 16.79639597 16.79639597 0 1 0-33.5927935 0Z" fill="#1F6214" p-id="152477"></path><path d="M848.69088719 450.27159227m-16.79639598 0a16.79639597 16.79639597 0 1 0 33.59279193 0 16.79639597 16.79639597 0 1 0-33.59279193 0Z" fill="#7C777C" p-id="152478"></path><path d="M808.28622291 495.06198255m-16.79639753 0a16.79639597 16.79639597 0 1 0 33.5927935 0 16.79639597 16.79639597 0 1 0-33.5927935 0Z" fill="#050EC8" p-id="152479"></path><path d="M861.75475035 508.12584572m-16.79639596 0a16.79639597 16.79639597 0 1 0 33.59279194 0 16.79639597 16.79639597 0 1 0-33.59279194 0Z" fill="#FFFEFF" p-id="152480"></path><path d="M762.84263938 532.38730726m-16.79639597 0a16.79639597 16.79639597 0 1 0 33.59279195 0 16.79639597 16.79639597 0 1 0-33.59279195 0Z" fill="#693919" p-id="152481"></path><path d="M820.69689285 554.78250241m-16.79639595 0a16.79639597 16.79639597 0 1 0 33.59279192 0 16.79639597 16.79639597 0 1 0-33.59279192 0Z" fill="#DC7A20" p-id="152482"></path><path d="M591.72468672 830.16875123m-177.3699451 0a177.36994509 177.36994509 0 1 0 354.73988861 0 177.36994509 177.36994509 0 1 0-354.73988861 0Z" fill="#117C0B" p-id="152483"></path><path d="M591.72468672 830.16875123m-133.4007133 0a133.4007117 133.4007117 0 1 0 266.80142499 0 133.4007117 133.4007117 0 1 0-266.80142499 0Z" fill="#FFFDFA" p-id="152484"></path><path d="M549.99497298 792.84342651m-16.79639751 0a16.79639597 16.79639597 0 1 0 33.59279348 0 16.79639597 16.79639597 0 1 0-33.59279348 0Z" fill="#1F6214" p-id="152485"></path><path d="M632.110688 785.37836095m-16.79639598 0a16.79639597 16.79639597 0 1 0 33.59279194 0 16.79639597 16.79639597 0 1 0-33.59279194 0Z" fill="#7C777C" p-id="152486"></path><path d="M591.72468672 830.16875123m-16.79639754 0a16.79639597 16.79639597 0 1 0 33.5927935 0 16.79639597 16.79639597 0 1 0-33.5927935 0Z" fill="#050EC8" p-id="152487"></path><path d="M645.17455118 843.23261442m-16.79639597 0a16.79639597 16.79639597 0 1 0 33.59279193 0 16.79639597 16.79639597 0 1 0-33.59279193 0Z" fill="#FFFEFF" p-id="152488"></path><path d="M546.2624402 867.49407594m-16.79639594 0a16.79639597 16.79639597 0 1 0 33.59279192 0 16.79639597 16.79639597 0 1 0-33.59279192 0Z" fill="#693919" p-id="152489"></path><path d="M604.11669367 889.8892711m-16.79639597 0a16.79639597 16.79639597 0 1 0 33.59279193 0 16.79639597 16.79639597 0 1 0-33.59279193 0Z" fill="#DC7A20" p-id="152490"></path><path d="M213.35786525 702.36683868m-177.36994511 0a177.36994509 177.36994509 0 1 0 354.7398902 0 177.36994509 177.36994509 0 1 0-354.7398902 0Z" fill="#913808" p-id="152491"></path><path d="M213.35786525 702.36683868m-133.40071172 0a133.4007117 133.4007117 0 1 0 266.80142341 0 133.4007117 133.4007117 0 1 0-266.80142341 0Z" fill="#FFFDFA" p-id="152492"></path><path d="M171.6468145 665.0415124m-16.79639596 0a16.79639597 16.79639597 0 1 0 33.59279193 0 16.79639597 16.79639597 0 1 0-33.59279193 0Z" fill="#1F6214" p-id="152493"></path><path d="M253.76252949 657.57644841m-16.79639595 0a16.79639597 16.79639597 0 1 0 33.59279193 0 16.79639597 16.79639597 0 1 0-33.59279193 0Z" fill="#7C777C" p-id="152494"></path><path d="M213.35786525 702.36683868m-16.79639598 0a16.79639597 16.79639597 0 1 0 33.59279194 0 16.79639597 16.79639597 0 1 0-33.59279194 0Z" fill="#050EC8" p-id="152495"></path><path d="M266.82639424 715.4307019m-16.79639754 0a16.79639597 16.79639597 0 1 0 33.59279351 0 16.79639597 16.79639597 0 1 0-33.59279351 0Z" fill="#FFFEFF" p-id="152496"></path><path d="M167.91428172 739.69216342m-16.79639598 0a16.79639597 16.79639597 0 1 0 33.59279195 0 16.79639597 16.79639597 0 1 0-33.59279195 0Z" fill="#693919" p-id="152497"></path><path d="M225.76853518 762.08735856m-16.79639596 0a16.79639597 16.79639597 0 1 0 33.59279348 0 16.79639597 16.79639597 0 1 0-33.59279348 0Z" fill="#DC7A20" p-id="152498"></path><path d="M223.90227036 331.7076968m-177.3699451 0a177.36994509 177.36994509 0 1 0 354.73988861 0 177.36994509 177.36994509 0 1 0-354.73988861 0Z" fill="#979A99" p-id="152499"></path><path d="M223.90227036 331.7076968m-133.40071328 0a133.4007117 133.4007117 0 1 0 266.801425 0 133.4007117 133.4007117 0 1 0-266.801425 0Z" fill="#FFFDFA" p-id="152500"></path><path d="M182.17255664 294.38237209m-16.79639753 0a16.79639597 16.79639597 0 1 0 33.59279349 0 16.79639597 16.79639597 0 1 0-33.59279349 0Z" fill="#1F6214" p-id="152501"></path><path d="M264.28827165 286.91730651m-16.79639597 0a16.79639597 16.79639597 0 1 0 33.59279193 0 16.79639597 16.79639597 0 1 0-33.59279193 0Z" fill="#7C777C" p-id="152502"></path><path d="M223.90227036 331.7076968m-16.79639754 0a16.79639597 16.79639597 0 1 0 33.59279351 0 16.79639597 16.79639597 0 1 0-33.59279351 0Z" fill="#050EC8" p-id="152503"></path><path d="M277.35213483 344.77155999m-16.79639598 0a16.79639597 16.79639597 0 1 0 33.59279193 0 16.79639597 16.79639597 0 1 0-33.59279193 0Z" fill="#FFFEFF" p-id="152504"></path><path d="M178.44002384 369.03302151m-16.79639595 0a16.79639597 16.79639597 0 1 0 33.59279193 0 16.79639597 16.79639597 0 1 0-33.59279193 0Z" fill="#693919" p-id="152505"></path><path d="M236.29427732 391.42821666m-16.79639598 0a16.79639597 16.79639597 0 1 0 33.59279194 0 16.79639597 16.79639597 0 1 0-33.59279194 0Z" fill="#DC7A20" p-id="152506"></path><path d="M484.67565394 523.13062722m-136.0508106 0a136.05081061 136.05081061 0 1 0 272.10161965 0 136.05081061 136.05081061 0 1 0-272.10161965 0Z" fill="#04FEFD" p-id="152507"></path></svg>