<?xml version="1.0" standalone="no"?><!DOCTYPE svg PUBLIC "-//W3C//DTD SVG 1.1//EN" "http://www.w3.org/Graphics/SVG/1.1/DTD/svg11.dtd"><svg t="1751965052051" class="icon" viewBox="0 0 1024 1024" version="1.1" xmlns="http://www.w3.org/2000/svg" p-id="278301" xmlns:xlink="http://www.w3.org/1999/xlink" width="200" height="200"><path d="M940.558227 937.840774H142.106775a58.025601 58.025601 0 0 1 0-116.051202h799.250702a58.025601 58.025601 0 1 1 0 116.051202z" fill="#CFD8DC" p-id="278302"></path><path d="M940.558227 937.840774v-7.992507H142.106775a50.033094 50.033094 0 0 1 0-100.066188h799.250702a50.033094 50.033094 0 1 1 0 100.066188v15.985014a66.018108 66.018108 0 1 0 0-132.036216h-799.250702a66.018108 66.018108 0 0 0 0 132.036216h799.250702z" fill="#455A64" p-id="278303"></path><path d="M183.348111 879.175773a21.579769 21.579769 0 1 1-21.579769-21.419919A21.739619 21.739619 0 0 1 183.348111 879.175773z" fill="#03A9F4" p-id="278304"></path><path d="M248.407118 879.815173m-21.579769 0a21.579769 21.579769 0 1 0 43.159538 0 21.579769 21.579769 0 1 0-43.159538 0Z" fill="#03A9F4" p-id="278305"></path><path d="M335.045894 879.815173m-21.579768 0a21.579769 21.579769 0 1 0 43.159537 0 21.579769 21.579769 0 1 0-43.159537 0Z" fill="#03A9F4" p-id="278306"></path><path d="M443.26444 879.175773a21.579769 21.579769 0 1 1-21.579769-21.419919A21.739619 21.739619 0 0 1 443.26444 879.175773z" fill="#03A9F4" p-id="278307"></path><path d="M508.323447 879.815173m-21.579769 0a21.579769 21.579769 0 1 0 43.159538 0 21.579769 21.579769 0 1 0-43.159538 0Z" fill="#03A9F4" p-id="278308"></path><path d="M594.962223 879.815173m-21.579769 0a21.579769 21.579769 0 1 0 43.159538 0 21.579769 21.579769 0 1 0-43.159538 0Z" fill="#03A9F4" p-id="278309"></path><path d="M681.600999 879.815173m-21.579769 0a21.579769 21.579769 0 1 0 43.159538 0 21.579769 21.579769 0 1 0-43.159538 0Z" fill="#03A9F4" p-id="278310"></path><path d="M768.239775 879.815173m-21.579769 0a21.579769 21.579769 0 1 0 43.159538 0 21.579769 21.579769 0 1 0-43.159538 0Z" fill="#03A9F4" p-id="278311"></path><path d="M876.29847 879.175773a21.579769 21.579769 0 1 1-21.419919-21.419919A21.579769 21.579769 0 0 1 876.29847 879.175773z" fill="#03A9F4" p-id="278312"></path><path d="M941.517328 879.815173m-21.579769 0a21.579769 21.579769 0 1 0 43.159537 0 21.579769 21.579769 0 1 0-43.159537 0Z" fill="#03A9F4" p-id="278313"></path><path d="M947.751483 895.160787v43.159538a7.992507 7.992507 0 0 0 7.992507 7.992507 7.992507 7.992507 0 0 0 7.992507-7.992507V895.160787a7.992507 7.992507 0 0 0-7.992507-7.992507 7.992507 7.992507 0 0 0-7.992507 7.992507z m0-93.991883V847.205745a8.152357 8.152357 0 0 0 7.992507 7.992507 7.992507 7.992507 0 0 0 7.992507-7.992507v-46.516391a7.992507 7.992507 0 0 0-7.992507-7.992507 7.992507 7.992507 0 0 0-7.992507 7.992507z m0-94.151733v47.155792a8.152357 8.152357 0 0 0 7.992507 7.992507 7.992507 7.992507 0 0 0 7.992507-7.992507V706.537621a7.992507 7.992507 0 0 0-7.992507-7.992507 8.152357 8.152357 0 0 0-7.992507 7.992507z m0-93.991882v46.995941a7.992507 7.992507 0 0 0 7.992507 7.992507 7.992507 7.992507 0 0 0 7.992507-7.992507v-47.475492a7.992507 7.992507 0 0 0-7.992507-7.992507 8.152357 8.152357 0 0 0-7.992507 7.992507z m0-93.991883v46.995941a7.992507 7.992507 0 0 0 7.992507 7.992508 7.992507 7.992507 0 0 0 7.992507-7.992508v-47.475491a7.992507 7.992507 0 0 0-7.992507-7.992507 8.152357 8.152357 0 0 0-7.992507 7.992507z m0-93.991882v46.51639a7.992507 7.992507 0 0 0 7.992507 7.992507 7.992507 7.992507 0 0 0 7.992507-7.992507v-46.995941a7.992507 7.992507 0 0 0-7.992507-7.992507 7.992507 7.992507 0 0 0-7.992507 7.992507z m0-93.991883v46.995941a7.992507 7.992507 0 0 0 7.992507 7.992507 7.992507 7.992507 0 0 0 7.992507-7.992507v-47.475491a7.992507 7.992507 0 0 0-7.992507-7.992507 7.992507 7.992507 0 0 0-7.992507 7.992507z m0-93.991883v46.995942a8.152357 8.152357 0 0 0 7.992507 7.992507 7.992507 7.992507 0 0 0 7.992507-7.992507V236.578208a7.992507 7.992507 0 0 0-7.992507-7.992507 7.992507 7.992507 0 0 0-7.992507 7.992507z m-54.189198-24.297221h46.995942a7.992507 7.992507 0 0 0 0-15.985014H893.562285a7.992507 7.992507 0 1 0 0 15.985014z m-94.151732 0h47.955042a7.992507 7.992507 0 0 0 0-15.985014H799.250702a7.992507 7.992507 0 0 0 0 15.985014z m-93.991883 0h46.995941a7.992507 7.992507 0 0 0 0-15.985014h-46.995941a7.992507 7.992507 0 0 0 0 15.985014z m-93.991883 0h46.995942a7.992507 7.992507 0 0 0 0-15.985014h-46.995942a7.992507 7.992507 0 0 0 0 15.985014z m-93.991882 0h46.995941a7.992507 7.992507 0 0 0 0-15.985014h-46.995941a7.992507 7.992507 0 0 0 0 15.985014z m-93.991883 0h46.995941a7.992507 7.992507 0 0 0 0-15.985014h-46.995941a7.992507 7.992507 0 0 0 0 15.985014z m-93.991882 0h46.995941a7.992507 7.992507 0 0 0 0-15.985014h-46.995941a7.992507 7.992507 0 0 0 0 15.985014z m-93.991883 0h46.995941a7.992507 7.992507 0 0 0 0-15.985014h-46.995941a7.992507 7.992507 0 0 0 0 15.985014z m-94.151733 0h46.995942a7.992507 7.992507 0 0 0 0-15.985014H141.307524a7.992507 7.992507 0 0 0 0 15.985014z m-93.352482 0h46.356541a7.992507 7.992507 0 0 0 0-15.985014H47.955042a7.992507 7.992507 0 1 0 0 15.985014z" fill="#455A64" p-id="278314"></path><path d="M78.486419 263.912582h470.119263v470.119263H78.486419z" fill="#CFD8DC" p-id="278315"></path><path d="M548.605682 734.031845v-7.992507H86.478926V271.905089h454.134249v462.126756h7.992507v-7.992507 7.992507h7.992507V255.920075H70.493912v486.104277h486.104277v-7.992507h-7.992507z" fill="#455A64" p-id="278316"></path><path d="M125.48236 310.908523h376.127381v376.127381H125.48236z" fill="#F2C749" p-id="278317"></path><path d="M501.609741 686.876054v-7.992507H133.474867V318.90103h360.142367v367.975024h7.992507v-7.992507 7.992507h7.992507V302.916016H117.489853v391.952545h392.112395v-7.992507h-7.992507z" fill="#455A64" p-id="278318"></path><path d="M789.659694 498.892288m-216.75679 0a216.756791 216.756791 0 1 0 433.513581 0 216.756791 216.756791 0 1 0-433.513581 0Z" fill="#F27049" p-id="278319"></path><path d="M943.115829 427.918826l-39.642835 9.591009a125.00281 125.00281 0 0 0-20.460818-28.293475l21.100219-34.687481v-2.397752l-1.438652-2.078052-50.832344-31.010927a3.197003 3.197003 0 0 0-4.315954 1.118951l-21.419919 34.68748a128.839213 128.839213 0 0 0-34.847331-5.434904l-9.591008-39.962535a3.197003 3.197003 0 0 0-3.836403-2.237902l-58.345302 13.906962a3.356853 3.356853 0 0 0-2.397752 3.996253l9.591009 39.802685a131.716516 131.716516 0 0 0-27.973775 20.620668L665.136435 383.640337h-2.397753l-1.918201 1.438651-31.010927 50.992195v2.397752l1.598501 2.078052 34.52763 20.940369a123.883859 123.883859 0 0 0-5.434904 34.84733l-39.642835 9.591009a3.037153 3.037153 0 0 0-2.397752 3.836403l14.066812 58.185451a3.037153 3.037153 0 0 0 3.836403 2.397752l39.642835-9.591008a142.426475 142.426475 0 0 0 20.620668 28.453325L675.047143 623.415548v2.557602l1.438652 1.918202 50.672494 31.010927h2.397752l2.078052-1.598501L752.094911 623.415548a130.757415 130.757415 0 0 0 34.36778 5.434905l9.431159 39.482984A3.356853 3.356853 0 0 0 799.250702 671.37059l58.185452-14.066812a3.197003 3.197003 0 0 0 2.397752-3.836404l-9.431159-39.482984a133.315017 133.315017 0 0 0 28.773026-21.260069l34.84733 21.260069a3.356853 3.356853 0 0 0 4.315954-1.118951l31.970028-50.832345v-2.397752l-1.438651-2.078052-34.687481-21.100219a136.51202 136.51202 0 0 0 5.434905-34.36778l39.642835-9.591008a3.197003 3.197003 0 0 0 2.397752-3.836404l-14.066812-58.345301a3.197003 3.197003 0 0 0-4.475804-2.397752z" fill="#CFD8DC" p-id="278320"></path><path d="M943.115829 427.918826v-4.156104l-39.642835 9.431159 0.959101 4.315954 3.996253-2.078052a131.077115 131.077115 0 0 0-21.419918-29.252576l-3.037153 3.037153 3.676553 2.397752 21.739619-35.486731v-4.955355a7.353106 7.353106 0 0 0-3.516703-4.795504L855.038401 335.685295l-3.836403-1.118951a7.672807 7.672807 0 0 0-6.553856 3.676553l-21.260068 34.847331 3.676553 2.237902 1.278801-4.156104a137.471121 137.471121 0 0 0-35.966282-5.754605v4.475804l4.315954-1.118951-9.591008-39.802685a7.992507 7.992507 0 0 0-7.353107-5.914455h-1.918201l-58.505152 13.906962a7.512957 7.512957 0 0 0-5.914455 7.353107v1.758351l9.591008 39.802685 4.156104-0.959101-2.078052-3.836403a136.51202 136.51202 0 0 0-28.932875 21.260069l3.037153 3.197002 2.237901-3.836403-34.36778-21.100218-3.996253-1.118951h-1.918202a7.193256 7.193256 0 0 0-4.635654 3.516703l3.836403 2.237902-3.356853-1.598502-31.010927 50.832345-1.278801 3.996253v1.758352a8.152357 8.152357 0 0 0 3.516703 4.795504l2.237902-3.836403-2.397752 3.676553 34.68748 21.100219 2.237902-3.836404-4.315953-1.278801A132.835467 132.835467 0 0 0 655.385576 495.535436h4.475804l-1.118951-4.315954-39.642835 9.591008a7.353106 7.353106 0 0 0-5.754605 7.353107V511.52045l14.066812 58.345301a7.512957 7.512957 0 0 0 7.353107 5.754605h1.758351l39.802685-9.591009-1.118951-4.315953-3.836403 2.237902a149.619732 149.619732 0 0 0 21.419919 29.252575l3.037153-3.037152-3.676554-2.397752-20.780518 33.568529 3.676553 2.237902-3.676553-2.237902-1.118951 3.996254v2.557602l1.918202 2.717452 52.270996 31.970028h5.115204a7.992507 7.992507 0 0 0 4.635654-3.356853l20.780519-34.52763-2.877303-1.278801-1.118951 4.315954a138.110521 138.110521 0 0 0 35.326881 5.594755v-4.475804l-4.315954 1.118951 9.591009 39.323134a7.512957 7.512957 0 0 0 7.353106 5.754605h1.758352l58.345301-14.066812a7.672807 7.672807 0 0 0 5.754605-7.353107v-1.758351l-9.591008-39.482985-4.156104 0.959101 2.078052 3.836403a127.880112 127.880112 0 0 0 29.412426-21.419918l-3.356853-3.037153-2.397752 3.676553 34.84733 21.260069 3.996254 1.118951a7.832657 7.832657 0 0 0 6.553856-3.516703l31.010927-50.672495 1.118951-3.996253V559.475492l-4.315954 0.959101 4.315954-0.959101a7.353106 7.353106 0 0 0-3.516703-4.795504l-2.237902 3.676553 2.237902-3.676553-34.687481-21.100219-2.237902 3.676553 4.156104 1.278801a146.902279 146.902279 0 0 0 5.754605-35.486731h-4.475804l1.118951 4.315954 39.642835-9.591009a7.832657 7.832657 0 0 0 5.754605-7.512956v-1.598502l-14.066813-58.345301a7.512957 7.512957 0 0 0-7.353106-5.914455h-1.758352l0.959101 4.156104 1.118951 4.315953V430.476428L943.115829 431.595379l1.118951 0.799251V431.595379H943.115829l4.156104-1.118951L943.115829 431.595379l13.906962 58.185451 4.315954-0.9591-4.315954 0.9591h0.959101-0.959101 0.959101v-1.118951 1.118951H959.100843v-1.118951l1.118951 4.315954-0.959101-4.315954-42.999688 10.39026v3.356853a127.880112 127.880112 0 0 1-5.434904 33.248829l-0.959101 3.197003 37.724633 23.01842v-1.118951h-1.278801v-1.118951h-1.278801 1.278801-0.959101 1.278801-0.959101l-30.691227 50.992195 3.676553 2.237902-3.676553-2.397752h0.959101v-1.118951h-0.959101 0.959101v-1.118951 1.278801-1.118951L879.175773 587.129566l-2.397752 2.397752a134.274118 134.274118 0 0 1-27.494225 19.981268l-3.037152 1.598501 10.390259 42.679988h1.118951v-1.278802l-0.959101 1.278802h1.278801v-1.278802l-58.824852 13.906963v0.959101-0.959101 1.118951h1.118951l-1.118951-1.118951v1.118951h1.118951l-10.230409-42.520138h-3.356852a128.999063 128.999063 0 0 1-33.24883-5.275054l-3.197003-0.959101L727.477989 655.385576h0.959101v-0.959101h0.959101v-0.959101l1.118951 4.315954 0.799251-4.475804h-1.598502l-49.233843-30.051826-2.237902 0.15985-3.516703 2.717452 4.156104-1.118951h-1.278801 1.438651-1.278801 0.959101-0.959101 0.959101l23.01842-37.404933-2.397752-2.557602A133.634717 133.634717 0 0 1 679.363097 559.475492l-1.598501-2.877303-42.999688 10.230409v1.278801-1.278801 1.278801h1.118951l-1.118951-0.959101v1.278802h1.118951l-14.066812-58.345302h-1.278802 1.438652-1.278801v1.118951l0.9591-1.118951h-1.278801v1.118951l42.999688-10.390259v-3.356853a121.486107 121.486107 0 0 1 5.275055-33.568529l0.959101-3.197003-37.404933-22.85857v1.118951h1.278801v-0.799251 1.118951h1.278801-1.118951 1.118951-1.118951 0.959101-1.118951 0.959101l31.010927-50.672494h-0.959101v1.118951h-0.959101v1.118951l-0.799251-7.193257 0.959101 4.156104v-1.118951 1.118951-1.278801 1.118951l37.245083 22.85857 2.557602-2.397752a134.753668 134.753668 0 0 1 27.174524-19.821418l2.877303-1.598501-10.390259-43.159538h-1.118951 1.118951-1.118951v1.118951-1.118951h-1.118951v1.118951l58.185451-14.066812v-1.118951h-1.278801l1.278801 0.9591v-1.278801h-1.278801l4.315953-1.118951-4.315953 1.118951 10.390259 43.159538h3.516703a126.921012 126.921012 0 0 1 33.568529 5.434905l3.197003 0.959101 23.178271-37.724633h-0.959101v1.278801h0.959101-0.959101v0.959101-1.118951 0.9591l50.672494 31.010928v-1.118951h-1.278801v0.79925-1.118951h-1.278801l4.315954-0.9591h-4.315954v1.598501l-22.53887 36.765532 2.397752 2.397752a125.32251 125.32251 0 0 1 19.821418 27.334374l1.598501 3.037153 44.598189-11.18951z" fill="#455A64" p-id="278321"></path><path d="M864.46956 494.256634a74.969716 74.969716 0 0 1-45.07774 73.850765 75.129566 75.129566 0 0 1-104.541992-63.940056 74.809866 74.809866 0 0 1 45.07774-73.850765 71.932563 71.932563 0 0 1 12.148611-3.996253 74.809866 74.809866 0 0 1 92.393381 67.936309z" fill="#03A9F4" p-id="278322"></path><path d="M864.46956 494.256634h-4.635654v4.955355a70.493912 70.493912 0 0 1-42.520138 63.940056A70.493912 70.493912 0 0 1 719.325632 503.847643v-4.955355a70.493912 70.493912 0 0 1 42.520138-63.940056 72.891664 72.891664 0 0 1 11.34936-3.836403 72.412114 72.412114 0 0 1 15.985014-1.918202 69.694661 69.694661 0 0 1 41.401186 13.587262 70.653762 70.653762 0 0 1 28.773025 52.111146h9.271308a79.92507 79.92507 0 0 0-79.92507-74.490166 83.122073 83.122073 0 0 0-18.702466 2.237902 92.553231 92.553231 0 0 0-12.788011 4.315954 79.92507 79.92507 0 0 0-47.955043 72.891664v5.594755a79.92507 79.92507 0 0 0 111.095848 67.93631 79.92507 79.92507 0 0 0 47.955042-72.891664v-5.594755z" fill="#455A64" p-id="278323"></path><path d="M831.220731 498.572588a41.241336 41.241336 0 0 1-23.018421 37.724633A42.040587 42.040587 0 1 1 831.220731 498.572588z" fill="#CDEEFD" p-id="278324"></path><path d="M831.220731 498.572588h-4.635655a37.245083 37.245083 0 0 1-20.460817 32.929129 38.683734 38.683734 0 0 1-16.944115 3.996254 37.404933 37.404933 0 0 1-37.404933-37.245083 37.564783 37.564783 0 0 1 20.460818-33.088979 38.683734 38.683734 0 0 1 16.944115-3.996254 37.564783 37.564783 0 0 1 37.404932 37.245083h9.431159a46.836091 46.836091 0 0 0-46.836091-46.356541 45.87699 45.87699 0 0 0-21.100219 4.955355 46.356541 46.356541 0 0 0-25.735873 41.401186 46.995941 46.995941 0 0 0 46.836092 46.516391 49.073993 49.073993 0 0 0 21.100218-4.955354 46.836091 46.836091 0 0 0 25.735873-41.401187v-0.799251z" fill="#455A64" p-id="278325"></path></svg>