<?xml version="1.0" standalone="no"?><!DOCTYPE svg PUBLIC "-//W3C//DTD SVG 1.1//EN" "http://www.w3.org/Graphics/SVG/1.1/DTD/svg11.dtd"><svg t="1752038312209" class="icon" viewBox="0 0 1024 1024" version="1.1" xmlns="http://www.w3.org/2000/svg" p-id="19245" xmlns:xlink="http://www.w3.org/1999/xlink" width="200" height="200"><path d="M136 32a64 64 0 0 0-64 64v832a64 64 0 0 0 64 64h394.944a288 288 0 0 1 309.056-482.048V96a64 64 0 0 0-64-64h-640z" fill="#FF7D00" p-id="19246"></path><path d="M712 1008a240 240 0 1 0 0-480 240 240 0 0 0 0 480z" fill="#FF9729" p-id="19247"></path><path d="M712 608a32 32 0 0 1 32 32v96h80a32 32 0 0 1 0 64h-112a32 32 0 0 1-32-32v-128a32 32 0 0 1 32-32z" fill="#FFFFFF" p-id="19248"></path><path d="M776 32h-192l256 256v-192a64 64 0 0 0-64-64z" fill="#FFC87A" p-id="19249"></path><path d="M648 288h192l-256-256v192a64 64 0 0 0 64 64z" fill="#D96200" p-id="19250"></path></svg>