<?xml version="1.0" standalone="no"?><!DOCTYPE svg PUBLIC "-//W3C//DTD SVG 1.1//EN" "http://www.w3.org/Graphics/SVG/1.1/DTD/svg11.dtd"><svg t="1751964802165" class="icon" viewBox="0 0 1024 1024" version="1.1" xmlns="http://www.w3.org/2000/svg" p-id="267835" xmlns:xlink="http://www.w3.org/1999/xlink" width="200" height="200"><path d="M859.33 958.99H164.21c-55 0-100-45-100-100V163.87c0-55 45-100 100-100h695.12c55 0 100 45 100 100v695.12c0 55-45 100-100 100z" fill="#F2AE16" p-id="267836"></path><path d="M745.22 293.62H278.78c-36.57 0-66.55 30.28-66.55 67.15v302.46c0 37.17 29.98 67.15 66.55 67.15h466.44c36.87 0 66.55-29.98 66.55-67.15V360.77c0-36.87-29.98-67.15-66.55-67.15z m33.27 369.61c0 18.59-14.99 33.57-33.27 33.57H278.78c-18.29 0-33.27-14.99-33.27-33.57V360.77c0-18.59 14.99-33.57 33.27-33.57h466.44c18.28 0 33.27 14.99 33.27 33.57v302.46zM478.73 495.36H295.57c-9.29 0-16.79 7.5-16.79 16.79s7.5 16.79 16.79 16.79h183.16c9.29 0 16.79-7.49 16.79-16.79-0.31-9.29-7.5-16.79-16.79-16.79z m-50.07 83.94h-133.1c-9.29 0-16.79 7.5-16.79 16.79s7.5 16.79 16.79 16.79h133.1c9.29 0 16.79-7.49 16.79-16.79 0-9.3-7.49-16.79-16.79-16.79z m253.61-53.96c17.98-15.29 29.68-38.07 29.68-63.55 0-46.16-37.47-83.93-83.34-83.93-45.86 0-83.33 37.77-83.33 83.93 0 25.48 11.69 48.26 29.68 63.55C537.48 544.82 512 584.39 512 629.66c0 9.29 7.49 16.79 16.79 16.79 9.29 0 16.79-7.49 16.79-16.79 0-46.16 37.47-83.93 83.33-83.93s83.33 37.77 83.33 83.93c0 9.29 7.5 16.79 16.79 16.79s16.79-7.49 16.79-16.79c-0.6-45.27-26.38-84.84-63.55-104.32z m-53.66-13.19c-27.58 0-50.06-22.48-50.06-50.36s22.48-50.36 50.06-50.36c27.58 0 50.06 22.48 50.06 50.36 0 27.58-22.48 50.36-50.06 50.36z m-133.4-101.02H295.57c-9.29 0-16.79 7.5-16.79 16.79s7.5 16.79 16.79 16.79h199.94c9.29 0 16.79-7.49 16.79-16.79-0.3-9-7.79-16.79-17.09-16.79z m0 0" fill="#FFFFFF" p-id="267837"></path></svg>