<?xml version="1.0" standalone="no"?><!DOCTYPE svg PUBLIC "-//W3C//DTD SVG 1.1//EN" "http://www.w3.org/Graphics/SVG/1.1/DTD/svg11.dtd"><svg t="1751962096776" class="icon" viewBox="0 0 1024 1024" version="1.1" xmlns="http://www.w3.org/2000/svg" p-id="107372" xmlns:xlink="http://www.w3.org/1999/xlink" width="200" height="200"><path d="M170.666667 85.333333v853.333334h682.666666V85.333333H170.666667z m0-85.333333h682.666666a85.333333 85.333333 0 0 1 85.333334 85.333333v853.333334a85.333333 85.333333 0 0 1-85.333334 85.333333H170.666667a85.333333 85.333333 0 0 1-85.333334-85.333333V85.333333a85.333333 85.333333 0 0 1 85.333334-85.333333z" fill="#333333" p-id="107373"></path><path d="M256 170.666667m42.666667 0l170.666666 0q42.666667 0 42.666667 42.666666l0 170.666667q0 42.666667-42.666667 42.666667l-170.666666 0q-42.666667 0-42.666667-42.666667l0-170.666667q0-42.666667 42.666667-42.666666Z" fill="#377DFF" p-id="107374"></path><path d="M256 554.666667h512v85.333333H256zM256 725.333333h426.666667v85.333334H256z" fill="#377DFF" p-id="107375"></path></svg>