<?xml version="1.0" standalone="no"?><!DOCTYPE svg PUBLIC "-//W3C//DTD SVG 1.1//EN" "http://www.w3.org/Graphics/SVG/1.1/DTD/svg11.dtd"><svg t="1751963567270" class="icon" viewBox="0 0 1024 1024" version="1.1" xmlns="http://www.w3.org/2000/svg" p-id="161957" xmlns:xlink="http://www.w3.org/1999/xlink" width="200" height="200"><path d="M543.6928 32.256a44.6464 44.6464 0 0 1 13.1072 31.744v370.432a89.5488 89.5488 0 1 1-89.6 0V315.392a201.728 201.728 0 1 0 211.5072 83.2 44.8 44.8 0 0 1 74.0864-50.4832 291.1744 291.1744 0 1 1-285.5424-123.904V111.2064a403.2512 403.2512 0 1 0 361.7792 151.552 44.8 44.8 0 0 1 70.4-55.4496A492.8 492.8 0 1 1 512 19.2c12.3904 0 23.552 5.0176 31.6928 13.1072z" fill="#417DFF" p-id="161958"></path><path d="M512 512m-102.4 0a102.4 102.4 0 1 0 204.8 0 102.4 102.4 0 1 0-204.8 0Z" fill="#FF9900" p-id="161959"></path></svg>