<?xml version="1.0" standalone="no"?><!DOCTYPE svg PUBLIC "-//W3C//DTD SVG 1.1//EN" "http://www.w3.org/Graphics/SVG/1.1/DTD/svg11.dtd"><svg t="1752038639436" class="icon" viewBox="0 0 1181 1024" version="1.1" xmlns="http://www.w3.org/2000/svg" p-id="34493" xmlns:xlink="http://www.w3.org/1999/xlink" width="230.6640625" height="200"><path d="M870.662041 0c9.924736 46.236667 14.84772 92.43395 4.962368 143.790521H211.848611C206.925626 87.314047 192.038522 0 271.357643 0h599.343782zM320.863171 92.43395c9.845968 0 14.84772-10.239807 9.845969-20.518998-4.922984-10.279191-14.808336-15.438478-19.770705-15.438478-9.924736 5.119904-14.887104 15.438478-9.924736 20.558382 0 10.239807 9.924736 15.399094 19.810089 15.399094z m69.315617-15.35971c0-5.159287-4.962368-10.318575-9.885352-15.438479-4.962368-5.119904-9.924736-5.119904-14.887104 0s-9.885352 5.119904-9.885352 15.399095c0 10.239807 4.922984 15.399094 14.84772 15.399094s19.810088-10.239807 19.810088-15.35971z m39.620177 15.35971c9.924736 0 14.887104-10.239807 14.887104-15.35971 0-5.159287 0-10.318575-4.962368-10.318575-4.962368-10.239807-4.962368-10.239807-9.924736-10.239807-9.885352 0-14.84772 10.239807-14.847721 20.518998 0 5.119904 0 10.239807 4.962368 10.239807 0 5.159287 4.962368 5.159287 9.885353 5.159287z" fill="#8DCAFC" p-id="34494"></path><path d="M870.662041 0h59.469648c19.810088 0 34.657808 10.239807 39.620176 35.957476 4.922984 41.07738 9.885352 82.154759 4.922985 118.15162-29.69544-10.318575-59.430265-15.438478-94.127457-10.318575h-4.922984c9.885352-46.197283 9.885352-97.553854-4.962368-143.790521z" fill="#63B9FC" p-id="34495"></path><path d="M880.586777 143.790521c4.922984 61.635761 9.885352 128.391426 0 184.907284-4.962368 30.798189 4.922984 71.914952 4.922984 92.433951 0 133.51133 0 267.062044 4.962368 395.492854H231.658699c-4.922984 0-9.885352 0-9.885352-5.119904l-4.962368-5.159287V143.751137H880.626161zM385.177036 369.814569l64.392633-61.635762c14.887104-10.239807 14.887104-25.678285 9.924736-41.077379-24.772456-66.755665-133.747633 61.635761-153.557721 82.194143-9.924736 15.359711-9.924736 30.798189 0 41.07738 14.84772 15.399094 163.443074 184.867901 153.557721 61.635761 0-5.119904-4.962368-10.279191-4.962368-10.279191L385.255804 380.054376v-10.239807z m257.570531-82.15476c0-10.279191 0-15.399094-4.922984-25.678285-4.962368-10.279191-9.924736-15.438478-19.810089-15.438478-14.887104-5.119904-34.657808 5.119904-39.620176 20.558382l-49.544912 190.027188c-4.962368 15.399094 4.962368 35.957476 19.810088 41.077379 14.84772 5.119904 34.657808-5.119904 39.620176-20.518998l54.507281-190.027188z m138.710001 66.755665c4.962368 5.119904 9.924736 10.239807 9.924736 15.399095 0 5.119904 0 10.279191-4.962368 15.399094-14.84772 15.438478-128.785265 107.872429-39.620176 113.031716 4.962368 0 9.885352 0 14.84772-5.159287 24.772456-20.558382 54.50728-46.236667 79.240353-66.755665 29.734824-30.837573 64.432016-51.356571 19.849472-92.473334-24.81184-25.678285-118.899913-138.631233-143.67237-61.596378v15.359711c9.924736 20.558382 34.657808 46.236667 64.392633 66.795048z m-302.153075 236.263856c0-10.279191-4.962368-15.438478-14.84772-15.438479h-153.597105c-9.845968 0-14.84772 5.119904-14.84772 15.438479v5.119903c0 10.239807 4.962368 15.399094 14.887104 15.399094h158.480705c4.962368 0 9.924736 0 9.924736-5.119903v-15.399094z m188.254914 77.034855c0-10.279191-14.887104-20.558382-34.697192-20.558381s-34.657808 10.279191-34.657809 20.558381c0 10.239807 14.84772 20.518998 34.657809 20.518998s34.657808-10.239807 34.657808-20.518998z m-109.014561 0c0-10.279191-4.922984-15.399094-14.84772-15.399094H310.938435c-4.962368 0-9.924736 0-9.924736 5.119903s-4.962368 5.119904-4.962368 5.119904c0 10.279191 4.962368 15.438478 14.887104 15.438478h232.798075c4.962368 0 9.924736 0 9.924736-5.119903 4.922984 5.119904 4.922984 0 4.922984-5.159288z m183.292546 66.755665c0-10.239807-9.924736-15.399094-24.772457-15.399094s-24.772456 10.239807-24.772456 20.518998 9.924736 15.438478 24.81184 15.438478c9.845968 0 24.733072-10.279191 24.733073-20.558382z m-321.963163 0c0-5.119904 0-10.239807-4.962368-10.239807s-4.962368-5.159287-9.924736-5.159287h-94.127457c-4.922984 0-9.845968 0-9.845969 5.119903-5.001752 5.119904-5.001752 5.119904-5.001751 10.279191 0 5.119904 0 10.239807 4.962368 10.239807s4.962368 5.159287 9.924736 5.159288h94.127456c4.922984 0 14.84772-5.119904 14.847721-15.359711z m227.835706 0c0-10.239807-4.922984-15.399094-14.84772-15.399094h-158.52009c-4.962368 0-9.885352 0-9.885352 5.119903-4.962368 5.119904-4.962368 5.119904-4.962368 10.279191 0 5.119904 0 10.239807 4.962368 10.239807 4.922984 5.159287 4.922984 5.159287 9.885352 5.159288h158.52009c4.962368 0 9.924736 0 9.924736-5.119904 4.922984 0 4.922984-5.119904 4.922984-10.239807z" fill="#3291FC" p-id="34496"></path><path d="M880.586777 143.790521c29.69544-5.119904 64.392633 0 94.127457 10.279191V236.303239l-4.962369 585.480658h-84.242104c-4.922984-133.51133-4.922984-267.062044-4.922984-395.45347 0-20.558382-9.924736-61.635761-4.962368-92.473334 9.885352-61.596378 4.962368-128.391426 4.962368-190.027188z" fill="#3291FC" p-id="34497"></path><path d="M974.67485 159.228999l128.785265 5.119904c-69.315617-20.558382-29.69544 46.236667-29.695441 71.914952h-94.127456l-4.962368-77.034856z m-762.826239 5.119904v77.034856H122.683522c-4.922984 0-4.922984 5.119904-4.922984 10.239807v559.841756c0 5.119904 4.922984 10.279191 9.885352 15.399095 29.734824 10.279191 59.469648 5.119904 89.165089-15.359711l4.962368 5.119904c0 5.119904 4.962368 5.119904 9.885352 5.119903h743.016151l99.089824 5.119904c4.962368 35.957476-4.962368 66.795049-14.84772 97.593237H73.138609c-4.922984 0-9.845968-5.119904-14.84772-5.119903-4.922984-20.558382-9.885352-30.837573-9.885352-46.236667V215.705473c0-30.798189 14.84772-46.236667 44.582544-46.236667l118.86053-5.119903z" fill="#A1AAEF" p-id="34498"></path><path d="M1103.460115 169.468806c24.81184 5.119904 39.65956 20.558382 39.65956 46.236667 4.922984 174.628094 4.922984 410.891949-4.962368 703.632278l-39.620176 5.119903H1053.915202c14.84772-30.798189 19.810088-61.635761 14.847721-97.593237V241.423142c4.962368-30.798189-34.657808-92.43395 34.657808-71.914952z" fill="#A1AAEF" p-id="34499"></path><path d="M211.887994 241.423142v564.922277c-29.734824 20.518998-59.469648 25.678285-89.204472 15.399094-4.922984 0-9.885352-10.239807-9.885352-15.399094V246.503662c0-5.119904 4.962368-10.239807 4.962368-10.239807l94.127456 5.119904z" fill="#DDE2F0" p-id="34500"></path><path d="M974.67485 241.423142h94.127456v580.321371l-99.050441-5.119903 4.922985-575.240851zM53.367905 914.13908c4.922984 5.119904 9.885352 5.119904 14.84772 5.119903h1030.282122c14.887104 30.837573 14.887104 66.795049-4.922984 97.593238-341.773251-5.119904-678.623518-5.119904-1020.436154 0-54.467897 0-84.202721-25.678285-69.315616-87.274663 0-5.119904 4.962368-5.119904 9.885352-5.119904 14.887104 0 24.81184-5.159287 39.65956-10.318574z" fill="#DAE0FF" p-id="34501"></path><path d="M1138.157307 919.337751l29.734824 5.119903c4.922984 0 9.885352 5.119904 9.885352 10.239807 14.84772 66.795049-14.84772 97.632622-84.20272 87.353431 19.810088-35.957476 19.810088-66.755665 4.962368-97.593238l39.620176-5.119903z" fill="#CCD2F2" p-id="34502"></path><path d="M310.938435 56.476474c-4.962368 0-9.924736 5.119904-9.924736 10.279191 0 5.119904 0 10.279191 4.962368 15.399094s9.924736 5.119904 14.847721 5.119904c4.962368 0 9.924736-5.119904 9.924736-10.239807s0-10.239807-4.962368-15.399095c-4.962368-5.119904-9.885352-5.119904-14.847721-5.119903z m44.582545 20.558382c0 5.119904 4.922984 10.239807 9.885352 15.399094 4.962368 5.119904 9.924736 5.119904 14.887104 0 4.922984-5.119904 9.885352-10.239807 9.885352-15.35971 0-5.159287-4.962368-10.318575-9.885352-15.438479-4.962368-5.119904-9.924736-5.119904-14.887104 0s-9.885352 5.119904-9.885352 15.399095z m74.277985-20.558382c-9.885352 0-14.84772 10.279191-14.847721 20.558382 0 10.239807 4.962368 15.399094 14.847721 15.399094 9.924736 0 14.887104-10.239807 14.887104-15.35971 0-10.318575-9.924736-20.597766-14.887104-20.597766zM385.21642 380.054376l69.355001 66.755665c4.962368 5.119904 4.962368 5.119904 4.962368 10.279191 9.885352 118.151619-138.710001-51.356571-153.557722-61.635762-9.924736-15.359711-9.924736-30.798189 0-46.197283 19.810088-20.558382 128.785265-148.949808 153.557722-87.314047 9.885352 15.359711 4.962368 30.798189-9.924736 46.197284L385.21642 369.814569v10.279191z m232.837458-133.51133c24.772456 5.119904 29.69544 20.518998 24.772456 41.07738l-49.544912 190.027188c-4.962368 20.518998-19.810088 25.678285-39.620176 20.518997-19.810088-5.119904-24.81184-20.518998-19.810089-41.077379l49.505529-190.027188c4.962368-20.558382 14.887104-25.678285 34.657808-20.558382z m163.443074 107.833045c-29.69544-20.558382-49.544912-46.236667-69.315617-66.755665-4.962368-5.119904-4.962368-10.279191 0-15.399095 24.733072-77.07424 118.860529 35.918092 143.632985 61.596378 44.582544 41.116764 9.885352 61.635761-19.810088 92.473334a504.113576 504.113576 0 0 1-79.279736 66.755665c-4.922984 5.119904-9.885352 5.119904-14.847721 5.119903-94.127457-10.239807 24.772456-102.713141 39.620177-112.992332 4.962368-5.119904 4.962368-10.239807 4.962368-15.35971 0-5.159287 0-10.318575-4.962368-15.438478z" fill="#F1EFF2" p-id="34503"></path><path d="M310.938435 575.201467h158.480706c9.924736 0 14.887104 5.119904 14.887104 15.438479v5.119903c0 10.239807-4.962368 15.399094-14.887104 15.399095H310.938435c-9.924736 0-14.887104-5.119904-14.887104-15.359711v-5.159287c0-10.279191 4.962368-15.438478 14.887104-15.438479z" fill="#FDDD44" p-id="34504"></path><path d="M598.24379 665.272385c0 5.907581 4.922984 17.762127 14.84772 17.762127 9.885352 0 24.772456 5.907581 34.657809 0 9.924736-5.907581 19.810088-11.815162 19.810088-17.762127 0-5.907581-4.922984-17.801511-14.84772-17.80151-9.885352 0-24.772456-5.907581-34.657809 0-14.887104 5.907581-19.810088 11.854546-19.810088 17.80151z m-287.305355-17.80151h232.798075c9.924736 0 14.84772 5.907581 14.84772 17.80151 0 11.815162-4.922984 17.762127-14.84772 17.762127H310.938435c-9.924736 5.907581-14.887104 0-14.887104-11.815162 0-17.801511 4.962368-23.748476 14.887104-23.748475z" fill="#FC9743" p-id="34505"></path><path d="M687.408879 735.572599c0 5.474358 4.922984 10.909333 14.84772 16.344307 9.885352 5.434974 19.810088 5.434974 24.772456 0 9.885352-5.434974 14.84772-10.869949 14.84772-16.344307 0-5.434974-4.962368-10.869949-14.84772-16.304924-9.924736-5.434974-19.810088-5.434974-24.81184 0-9.845968 5.434974-14.808336 10.869949-14.808336 16.304924z m-376.509827-16.304924h94.127456c9.924736 0 14.887104 5.434974 14.887104 16.304924 0 10.909333-4.962368 16.344307-14.887104 16.344307h-94.127456c-9.845968 0-14.84772-5.434974-14.847721-16.344307 0-10.869949 4.962368-16.304923 14.887104-16.304924z m163.482457 0h158.520089c9.924736 0 14.84772 5.434974 14.847721 16.304924 0 10.909333-4.922984 16.344307-14.847721 16.344307h-158.520089c-9.885352 0-14.84772-5.434974-14.84772-16.344307 0-10.869949 4.962368-16.304923 14.84772-16.304924z" fill="#28D1B3" p-id="34506"></path></svg>