<?xml version="1.0" standalone="no"?><!DOCTYPE svg PUBLIC "-//W3C//DTD SVG 1.1//EN" "http://www.w3.org/Graphics/SVG/1.1/DTD/svg11.dtd"><svg t="1752038360757" class="icon" viewBox="0 0 1024 1024" version="1.1" xmlns="http://www.w3.org/2000/svg" p-id="21426" xmlns:xlink="http://www.w3.org/1999/xlink" width="200" height="200"><path d="M227.669333 425.813333a43.6224 43.6224 0 1 0-47.035733 73.489067 43.6224 43.6224 0 0 0 47.018667-73.489067z m128.1536 82.500267a38.331733 38.331733 0 0 0-39.185066 65.877333l239.4112 142.626134a38.4 38.4 0 0 0 57.924266-32.887467 38.4 38.4 0 0 0-18.688-33.006933l-239.4624-142.609067z" fill="#438CFF" p-id="21427"></path><path d="M1013.640533 458.410667a38.468267 38.468267 0 0 0-5.888-14.506667c-0.802133-1.194667-2.048-1.9968-2.952533-3.1232a37.376 37.376 0 0 0-8.328533-7.714133c-0.4096-0.256-0.6656-0.768-1.0752-1.024L513.297067 148.394667a38.2976 38.2976 0 1 0-38.775467 66.048l442.88 260.608-126.122667 148.906666-591.0528-352.1536 147.217067-173.8752a38.314667 38.314667 0 1 0-58.487467-49.493333L112.520533 256.836267a37.802667 37.802667 0 0 0-5.666133 10.837333c-1.3312 1.536-3.0208 2.696533-4.0448 4.488533L34.423467 386.901333a128.3072 128.3072 0 0 0 44.544 175.650134l188.484266 112.298666-47.0528 96.768H85.7088L85.333333 714.7008a38.314667 38.314667 0 0 0-38.314666-38.058667h-0.256a38.314667 38.314667 0 0 0-38.058667 38.314667v0.256l1.3824 233.949867a38.314667 38.314667 0 0 0 38.314667 38.058666h0.256a38.314667 38.314667 0 0 0 38.058666-38.314666v-0.256l-0.6144-100.386134h158.344534c5.768533-0.085333 11.434667-1.518933 16.554666-4.181333 3.208533-1.5872 6.1952-3.584 8.874667-5.973333 0.6144-0.5632 1.3312-0.9728 1.8944-1.5872 2.8672-2.8672 5.239467-6.178133 7.048533-9.813334l54.715734-112.469333 248.866133 148.224a127.197867 127.197867 0 0 0 96.989867 14.062933 126.941867 126.941867 0 0 0 78.677333-58.538666l18.9952-31.931734c27.733333 17.5104 54.920533 24.1152 79.121067 24.1152 34.935467 0 63.7952-13.346133 79.701333-25.7024 6.997333-5.512533 11.861333-13.2608 13.7728-21.9648l63.761067-289.28c0.682667-3.874133 0.750933-7.8336 0.2048-11.741866-0.1024-0.9216 0.3072-1.826133 0.1024-2.850134l-0.1024-0.2048zM621.636267 796.603733L118.186667 496.708267a51.131733 51.131733 0 0 1-23.5008-31.607467 51.5072 51.5072 0 0 1 5.5808-39.031467L148.992 344.234667l591.9744 352.6656-48.725333 81.834666a51.438933 51.438933 0 0 1-70.6048 17.8688z m194.679466-76.305066l10.103467-17.015467c0.8192-1.4336 0.9216-2.952533 1.5872-4.437333 0.2048-0.256 0.5632-0.3584 0.768-0.6144l76.526933-90.368-26.88 121.890133c-12.253867 4.898133-34.645333 8.533333-62.122666-9.454933z" fill="#438CFF" p-id="21428"></path><path d="M1013.589333 458.410667a38.468267 38.468267 0 0 0-5.888-14.506667c-0.8192-1.194667-2.048-1.9968-2.952533-3.1232a37.376 37.376 0 0 0-8.328533-7.714133c-0.4096-0.256-0.682667-0.768-1.0752-1.024L513.245867 148.394667a38.2976 38.2976 0 1 0-38.775467 66.048l442.88 260.608-126.122667 148.906666-591.0528-352.1536 147.217067-173.8752a38.314667 38.314667 0 0 0-58.487467-49.493333L112.469333 256.836267a37.802667 37.802667 0 0 0-5.666133 10.837333c-1.3312 1.536-3.0208 2.696533-4.0448 4.488533L34.3552 386.901333a128.3072 128.3072 0 0 0 44.544 175.650134l188.501333 112.298666-47.0528 96.768H85.640533l-0.341333-56.9344a38.314667 38.314667 0 0 0-38.314667-38.058666h-0.256a38.314667 38.314667 0 0 0-38.058666 38.314666v0.256l1.365333 233.949867a38.314667 38.314667 0 0 0 38.331733 38.058667h0.256a38.314667 38.314667 0 0 0 38.058667-38.314667v-0.256l-0.631467-100.386133h158.3616c5.768533-0.085333 11.434667-1.518933 16.554667-4.181334 3.208533-1.5872 6.1952-3.584 8.874667-5.973333 0.6144-0.5632 1.3312-0.9728 1.8944-1.5872 2.850133-2.8672 5.239467-6.178133 7.048533-9.813333l54.715733-112.469334 248.849067 148.224a127.197867 127.197867 0 0 0 97.006933 14.062934 126.941867 126.941867 0 0 0 78.677334-58.538667l18.9952-31.931733c27.733333 17.5104 54.903467 24.1152 79.121066 24.1152 34.935467 0 63.7952-13.346133 79.701334-25.7024 6.997333-5.512533 11.861333-13.2608 13.7728-21.9648l63.744-289.28c0.682667-3.874133 0.750933-7.8336 0.2048-11.741867-0.1024-0.9216 0.3072-1.826133 0.1024-2.850133l-0.1024-0.2048z" fill="#3E4DA8" p-id="21429"></path><path d="M816.298667 720.298667l10.120533-17.015467c0.8192-1.4336 0.9216-2.952533 1.5872-4.437333 0.2048-0.256 0.5632-0.3584 0.768-0.6144l76.526933-90.368-26.88 121.890133c-12.253867 4.898133-34.645333 8.533333-62.122666-9.454933z" fill="#FFC66F" p-id="21430"></path><path d="M227.669333 425.813333a43.6224 43.6224 0 1 0-47.035733 73.489067 43.6224 43.6224 0 0 0 47.018667-73.489067z m116.701867 85.213867l-25.531733 41.181867 275.694933 164.932266 26.641067-39.936-276.821334-166.178133z" fill="#FFC66F" p-id="21431"></path></svg>