<?xml version="1.0" standalone="no"?><!DOCTYPE svg PUBLIC "-//W3C//DTD SVG 1.1//EN" "http://www.w3.org/Graphics/SVG/1.1/DTD/svg11.dtd"><svg t="1751965092400" class="icon" viewBox="0 0 1024 1024" version="1.1" xmlns="http://www.w3.org/2000/svg" p-id="282902" xmlns:xlink="http://www.w3.org/1999/xlink" width="200" height="200"><path d="M800 344h72V368H800zM800 736v8c0 22.4-17.6 40-40 40h-496c-22.4 0-40-17.6-40-40v-400H152v496h720V736H800z" fill="#64B5F6" p-id="282903"></path><path d="M1000 960h-976C9.6 960 0 950.4 0 936v-32c0-14.4 9.6-24 24-24h976c14.4 0 24 9.6 24 24v32c0 14.4-9.6 24-24 24z m-976-64c-4.8 0-8 3.2-8 8v32c0 4.8 3.2 8 8 8h976c4.8 0 8-3.2 8-8v-32c0-4.8-3.2-8-8-8h-976zM920 376c-4.8 0-8-3.2-8-8v-56c0-4.8-3.2-8-8-8H800c-4.8 0-8-3.2-8-8s3.2-8 8-8h104c14.4 0 24 9.6 24 24V368c0 4.8-3.2 8-8 8z" fill="#37474F" p-id="282904"></path><path d="M904 896h-784c-14.4 0-24-9.6-24-24v-560c0-14.4 9.6-24 24-24H224c4.8 0 8 3.2 8 8s-3.2 8-8 8H120c-4.8 0-8 3.2-8 8v560c0 4.8 3.2 8 8 8h784c4.8 0 8-3.2 8-8V736c0-4.8 3.2-8 8-8s8 3.2 8 8v136c0 14.4-9.6 24-24 24z" fill="#37474F" p-id="282905"></path><path d="M584 960h-144c-4.8 0-8-3.2-8-8v-64c0-4.8 3.2-8 8-8h144c4.8 0 8 3.2 8 8v64c0 4.8-3.2 8-8 8zM448 944h128v-48h-128v48z" fill="#37474F" p-id="282906"></path><path d="M256 120v-32c0-9.6 6.4-16 16-16h480c9.6 0 16 6.4 16 16V736c0 9.6-6.4 16-16 16H272c-9.6 0-16-6.4-16-16V264" fill="#FFCA28" p-id="282907"></path><path d="M752 760H272c-14.4 0-24-9.6-24-24V264c0-4.8 3.2-8 8-8s8 3.2 8 8V736c0 4.8 3.2 8 8 8h480c4.8 0 8-3.2 8-8V88c0-4.8-3.2-8-8-8H272c-4.8 0-8 3.2-8 8v32c0 4.8-3.2 8-8 8s-8-3.2-8-8v-32c0-14.4 9.6-24 24-24h480c14.4 0 24 9.6 24 24V736c0 14.4-9.6 24-24 24z" fill="#37474F" p-id="282908"></path><path d="M256 224c-4.8 0-8-3.2-8-8v-48c0-4.8 3.2-8 8-8s8 3.2 8 8v48c0 4.8-3.2 8-8 8zM872 376c-4.8 0-8-3.2-8-8v-16h-64c-4.8 0-8-3.2-8-8s3.2-8 8-8h72c4.8 0 8 3.2 8 8V368c0 4.8-3.2 8-8 8zM872 848h-720c-4.8 0-8-3.2-8-8v-496c0-4.8 3.2-8 8-8H224c4.8 0 8 3.2 8 8s-3.2 8-8 8h-64v480h704v-96c0-4.8 3.2-8 8-8s8 3.2 8 8v104c0 4.8-3.2 8-8 8z" fill="#37474F" p-id="282909"></path><path d="M1016 472h-384v-32c0-22.4 17.6-40 40-40h304c22.4 0 40 17.6 40 40v32z" fill="#EF5350" p-id="282910"></path><path d="M1016 480h-384c-4.8 0-8-3.2-8-8v-32c0-27.2 20.8-48 48-48h304c27.2 0 48 20.8 48 48v32c0 4.8-3.2 8-8 8zM640 464h368v-24c0-17.6-14.4-32-32-32H672c-17.6 0-32 14.4-32 32V464zM528 208H368c-4.8 0-8-3.2-8-8s3.2-8 8-8h160c4.8 0 8 3.2 8 8s-3.2 8-8 8zM640 256H416c-4.8 0-8-3.2-8-8s3.2-8 8-8h224c4.8 0 8 3.2 8 8s-3.2 8-8 8zM528 368H368c-4.8 0-8-3.2-8-8s3.2-8 8-8h160c4.8 0 8 3.2 8 8s-3.2 8-8 8zM560 416h-144c-4.8 0-8-3.2-8-8s3.2-8 8-8h144c4.8 0 8 3.2 8 8s-3.2 8-8 8zM528 528H368c-4.8 0-8-3.2-8-8s3.2-8 8-8h160c4.8 0 8 3.2 8 8s-3.2 8-8 8zM560 576h-144c-4.8 0-8-3.2-8-8s3.2-8 8-8h144c4.8 0 8 3.2 8 8s-3.2 8-8 8z" fill="#37474F" p-id="282911"></path><path d="M976 704H672c-22.4 0-40-17.6-40-40v-192h384v192c0 22.4-17.6 40-40 40z" fill="#FFFFFF" p-id="282912"></path><path d="M976 712H672c-27.2 0-48-20.8-48-48v-192c0-4.8 3.2-8 8-8h384c4.8 0 8 3.2 8 8v192c0 27.2-20.8 48-48 48zM640 480v184c0 17.6 14.4 32 32 32h304c17.6 0 32-14.4 32-32V480H640z" fill="#37474F" p-id="282913"></path><path d="M776 644.8c-1.6 0-3.2 0-4.8-1.6l-64-48c-1.6-1.6-3.2-3.2-3.2-6.4s1.6-4.8 3.2-6.4l64-48c3.2-3.2 8-1.6 11.2 1.6 3.2 3.2 1.6 8-1.6 11.2l-56 41.6 56 41.6c3.2 3.2 4.8 8 1.6 11.2-1.6 1.6-3.2 3.2-6.4 3.2z" fill="#37474F" p-id="282914"></path><path d="M872 644.8c-3.2 0-4.8-1.6-6.4-3.2-3.2-3.2-1.6-8 1.6-11.2l56-41.6-56-41.6c-3.2-3.2-4.8-8-1.6-11.2 3.2-3.2 8-4.8 11.2-1.6l64 48c1.6 1.6 3.2 3.2 3.2 6.4s-1.6 4.8-3.2 6.4l-64 48c-1.6 1.6-3.2 1.6-4.8 1.6z" fill="#37474F" p-id="282915"></path><path d="M808 660.8h-1.6c-4.8-1.6-6.4-4.8-6.4-9.6l32-128c1.6-4.8 4.8-6.4 9.6-6.4 4.8 1.6 6.4 4.8 6.4 9.6l-32 128c-1.6 3.2-4.8 6.4-8 6.4z" fill="#37474F" p-id="282916"></path></svg>