<?xml version="1.0" standalone="no"?><!DOCTYPE svg PUBLIC "-//W3C//DTD SVG 1.1//EN" "http://www.w3.org/Graphics/SVG/1.1/DTD/svg11.dtd"><svg t="1752038425209" class="icon" viewBox="0 0 1137 1024" version="1.1" xmlns="http://www.w3.org/2000/svg" p-id="23510" xmlns:xlink="http://www.w3.org/1999/xlink" width="222.0703125" height="200"><path d="M1099.847936 779.264V92.672c0-13.312-5.632-28.672-15.36-37.888s-24.576-16.896-37.888-16.896H91.207936c-30.208 0-53.248 24.576-53.248 54.784v686.592c0 13.312 5.632 28.672 15.36 37.888 9.728 9.728 24.576 16.896 37.888 16.896h955.904c30.208-1.536 52.736-24.576 52.736-54.784z m-1008.64 93.184c-24.576 0-47.616-11.264-64.512-28.672S0.071936 803.84 0.071936 779.264V92.672C-1.976064 43.52 40.007936 2.048 89.159936 0h957.44c24.576 0 47.616 11.264 64.512 28.672s26.624 39.936 26.624 64.512v684.544c2.048 49.152-39.936 91.136-89.088 92.672h-957.44v2.048z m174.592 113.664h606.72c11.264 0 18.944 7.68 18.944 18.944s-7.68 18.944-18.944 18.944H265.799936c-11.264 0-18.944-7.68-18.944-18.944s7.168-18.944 18.944-18.944z" fill="#0084FE" p-id="23511"></path><path d="M370.247936 456.192V386.56h23.04v69.632h-23.04z m324.096 0V386.56h23.04v69.632h-23.04z" fill="#2382E2" p-id="23512"></path><path d="M451.143936 522.752c0 38.4-31.232 69.632-69.632 69.632s-69.632-31.232-69.632-69.632S343.111936 453.12 381.511936 453.12s69.632 31.232 69.632 69.632zM381.511936 476.16c-25.6 0-46.08 20.992-46.08 46.08s20.992 46.08 46.08 46.08 46.08-20.992 46.08-46.08-20.48-46.08-46.08-46.08z m393.216 46.592c0 38.4-31.232 69.632-69.632 69.632s-69.632-31.232-69.632-69.632 31.232-69.632 69.632-69.632 69.632 31.232 69.632 69.632zM705.607936 476.16c-25.6 0-46.08 20.992-46.08 46.08s20.992 46.08 46.08 46.08 46.08-20.992 46.08-46.08-20.48-46.08-46.08-46.08z m-102.912 221.184h-69.632c-9.216 0-17.408-8.192-17.408-17.408s8.192-17.408 17.408-17.408h69.632c9.216 0 17.408 8.192 17.408 17.408 0 10.752-8.192 17.408-17.408 17.408z" fill="#2382E2" p-id="23513"></path><path d="M716.871936 589.824h-23.04c0 45.056-35.84 80.896-80.896 80.896v23.04c57.856 0 103.936-47.104 103.936-103.936zM369.735936 387.072h23.04c0-69.632 46.08-127.488 110.08-144.896 1.024-9.216 3.584-17.408 7.168-25.6C430.151936 232.448 369.735936 302.592 369.735936 387.072z m324.096 0h23.04c0-13.824-1.024-26.624-4.608-39.424h-24.064c3.584 11.776 5.632 25.6 5.632 39.424z m62.464-38.912h-161.792c-51.2 0-92.672-41.984-92.672-92.672s41.472-92.672 92.672-92.672h161.792c50.688 0 92.672 41.472 92.672 92.672S807.495936 348.16 756.295936 348.16z m74.24-92.672c0-39.424-32.256-71.68-71.68-71.68h-166.912c-39.424 0-71.68 32.256-71.68 71.68s32.256 71.68 71.68 71.68h166.912c39.424 0 71.68-32.256 71.68-71.68z" fill="#2382E2" p-id="23514"></path><path d="M594.503936 255.488c0 9.728 7.68 17.408 17.408 17.408s17.408-7.68 17.408-17.408-7.68-17.408-17.408-17.408-17.408 7.68-17.408 17.408zM657.991936 255.488c0 9.728 7.68 17.408 17.408 17.408s17.408-7.68 17.408-17.408-7.68-17.408-17.408-17.408-17.408 7.68-17.408 17.408zM721.479936 255.488c0 9.728 7.68 17.408 17.408 17.408s17.408-7.68 17.408-17.408-7.68-17.408-17.408-17.408c-9.216 0-17.408 7.68-17.408 17.408z" fill="#2382E2" p-id="23515"></path><path d="M381.511936 576c28.672-1.024 51.712-24.064 51.712-51.712 0-13.824-4.608-26.624-14.848-35.84-9.216-9.216-23.04-14.848-36.864-15.872-28.672 1.024-51.712 24.064-51.712 51.712-0.512 27.648 22.528 50.176 51.712 51.712zM705.607936 574.976c28.672-1.024 51.712-24.064 51.712-51.712 0-13.824-4.608-26.624-14.848-35.84-9.216-9.216-23.04-14.848-36.864-15.872-28.672 1.024-51.712 24.064-51.712 51.712s22.528 50.688 51.712 51.712z" fill="#DBEEFF" p-id="23516"></path></svg>