<?xml version="1.0" standalone="no"?><!DOCTYPE svg PUBLIC "-//W3C//DTD SVG 1.1//EN" "http://www.w3.org/Graphics/SVG/1.1/DTD/svg11.dtd"><svg t="1751962631604" class="icon" viewBox="0 0 1024 1024" version="1.1" xmlns="http://www.w3.org/2000/svg" p-id="146854" xmlns:xlink="http://www.w3.org/1999/xlink" width="200" height="200"><path d="M287.124211 356.917895h-66.425264v49.852631h55.107369c3.637895-1.482105 5.389474 0 5.793684 3.637895v13.473684h-60.901053v66.56h-17.111579a4.581053 4.581053 0 0 1-5.12-5.254737V334.686316H282.947368s5.524211 5.524211 3.907369 8.892631zM319.865263 489.903158a4.581053 4.581053 0 0 1-5.12-5.254737V334.686316h17.111579a4.581053 4.581053 0 0 1 5.12 5.254737v149.962105zM376.050526 495.427368a33.28 33.28 0 0 1-5.793684-9.027368V340.345263h16.976842a4.850526 4.850526 0 0 1 3.637895 1.347369 4.985263 4.985263 0 0 1 1.482105 3.637894v127.865263h60.227369s5.658947 0 6.197894 3.772632v18.458947zM514.155789 356.917895h-37.591578s-5.658947 0-6.602106-3.907369v-18.32421h105.903158a9.970526 9.970526 0 0 0 4.042105 5.254737 2.694737 2.694737 0 0 1 0.808421 3.637894v13.473685h-44.328421v132.985263h-17.111579c-3.772632 1.482105-5.524211 0-5.12-3.503158zM691.738947 334.686316a4.581053 4.581053 0 0 1 5.254737 5.254737v16.976842H630.568421l-5.52421 49.852631h58.88c3.637895-2.290526 5.389474 0 7.545263 2.829474v13.473684h-66.425263v49.852632h67.368421a3.907368 3.907368 0 0 1 4.042105 0.673684 2.290526 2.290526 0 0 1 0 3.637895v12.395789h-87.848421c-3.772632 0-5.793684-1.751579-5.793684-5.254737V334.686316zM729.869474 489.903158a4.446316 4.446316 0 0 1-5.12-5.12v-144.168421a198.063158 198.063158 0 0 1 21.153684-3.098948 226.357895 226.357895 0 0 1 23.578947-0.673684 50.930526 50.930526 0 0 1 37.052632 11.587369 46.888421 46.888421 0 0 1 11.452631 34.627368 45.675789 45.675789 0 0 1-7.275789 26.947369 39.612632 39.612632 0 0 1-19.536842 14.686315 150.096842 150.096842 0 0 1 10.374737 14.95579c3.503158 5.658947 6.736842 11.452632 9.835789 17.515789s5.793684 11.991579 8.353684 17.92 4.446316 10.913684 5.928421 15.494737h-18.728421a6.602105 6.602105 0 0 1-4.311579-1.212631 7.949474 7.949474 0 0 1-2.155789-3.637895c-1.347368-3.772632-3.098947-7.949474-5.254737-12.665263s-4.715789-9.566316-7.275789-14.551579-5.524211-10.105263-8.623158-15.225263-6.467368-9.566316-9.701053-13.473685h-22.770526v61.03579z m16.976842-77.608421h25.734737a50.256842 50.256842 0 0 0 11.317894-1.212632 24.791579 24.791579 0 0 0 9.296842-4.446316 18.593684 18.593684 0 0 0 5.928422-8.623157 42.846316 42.846316 0 0 0 2.021052-14.282106 45.541053 45.541053 0 0 0-1.751579-13.473684 20.48 20.48 0 0 0-5.52421-8.892631 22.905263 22.905263 0 0 0-9.431579-4.581053 62.517895 62.517895 0 0 0-13.473684-1.212632h-13.473685a61.170526 61.170526 0 0 0-10.374737 1.347369z" fill="#0087EE" p-id="146855"></path><path d="M955.149474 13.473684H68.850526A55.376842 55.376842 0 0 0 13.473684 68.850526v886.298948A55.376842 55.376842 0 0 0 68.850526 1010.526316h886.298948A55.376842 55.376842 0 0 0 1010.526316 955.149474V68.850526A55.376842 55.376842 0 0 0 955.149474 13.473684z m-693.894737 786.593684a37.591579 37.591579 0 1 1 37.591579-37.591579 37.591579 37.591579 0 0 1-37.591579 37.591579z m167.208421 0a37.591579 37.591579 0 1 1 37.591579-37.591579 37.591579 37.591579 0 0 1-37.591579 37.591579z m167.073684 0a37.591579 37.591579 0 1 1 37.726316-37.591579 37.591579 37.591579 0 0 1-37.726316 37.591579z m167.208421 0a37.591579 37.591579 0 1 1 37.591579-37.591579 37.591579 37.591579 0 0 1-37.591579 37.591579z m74.913684-134.736842h-650.778947a55.376842 55.376842 0 0 1-55.376842-55.376842V218.947368a55.376842 55.376842 0 0 1 55.376842-55.376842h649.701053a55.376842 55.376842 0 0 1 55.376842 55.376842l1.077894 391.68a55.376842 55.376842 0 0 1-55.376842 55.376843z" fill="#0087EE" p-id="146856"></path><path d="M242.526316 786.728421s-0.943158 0-0.943158-0.943158a3.098947 3.098947 0 0 1 0-1.482105l34.357895-47.696842 4.581052 1.616842a1.616842 1.616842 0 0 1 0.943158 0.943158 2.290526 2.290526 0 0 1 0 1.482105l-34.896842 47.696842z" fill="#0087EE" p-id="146857"></path><path d="M275.941053 788.345263L241.583158 741.052632a3.098947 3.098947 0 0 1 0-1.482106 1.616842 1.616842 0 0 1 0.943158-0.943158l4.446316-1.616842 34.357894 47.696842a3.368421 3.368421 0 0 1 0 1.482106l-0.943158 0.943158zM409.195789 786.728421s-0.943158 0-0.943157-0.943158a3.368421 3.368421 0 0 1 0-1.482105l34.357894-47.696842 4.446316 1.616842a1.616842 1.616842 0 0 1 0.943158 0.943158v1.482105l-34.357895 47.696842z" fill="#0087EE" p-id="146858"></path><path d="M443.149474 788.345263L408.791579 741.052632a1.616842 1.616842 0 0 1 0-1.482106l0.808421-0.943158 4.581053-1.616842 34.357894 47.696842a3.098947 3.098947 0 0 1 0 1.482106l-0.943158 0.943158zM576.404211 786.728421c-0.673684 0-0.943158 0-0.943158-0.943158a3.098947 3.098947 0 0 1 0-1.482105l34.357894-47.696842 4.581053 1.616842s0.808421 0 0.808421 0.943158a1.616842 1.616842 0 0 1 0 1.482105l-34.357895 47.696842z" fill="#0087EE" p-id="146859"></path><path d="M610.223158 788.345263L575.865263 741.052632v-1.482106a1.616842 1.616842 0 0 1 0.943158-0.943158l4.446316-1.616842 34.357895 47.696842a3.368421 3.368421 0 0 1 0 1.482106l-0.943158 0.943158zM743.477895 786.728421s-0.943158 0-0.943158-0.943158a3.368421 3.368421 0 0 1 0-1.482105l34.357895-47.696842 4.446315 1.616842a1.616842 1.616842 0 0 1 0.943158 0.943158 3.098947 3.098947 0 0 1 0 1.482105l-34.357894 47.696842z" fill="#0087EE" p-id="146860"></path><path d="M777.431579 788.345263L743.073684 741.052632a2.290526 2.290526 0 0 1 0-1.482106 1.616842 1.616842 0 0 1 0.943158-0.943158l4.581053-1.616842 34.357894 47.696842a3.098947 3.098947 0 0 1 0 1.482106l-0.943157 0.943158z" fill="#0087EE" p-id="146861"></path></svg>