<?xml version="1.0" standalone="no"?><!DOCTYPE svg PUBLIC "-//W3C//DTD SVG 1.1//EN" "http://www.w3.org/Graphics/SVG/1.1/DTD/svg11.dtd"><svg t="1751964417386" class="icon" viewBox="0 0 1024 1024" version="1.1" xmlns="http://www.w3.org/2000/svg" p-id="213587" xmlns:xlink="http://www.w3.org/1999/xlink" width="200" height="200"><path d="M0 0h1024v1024H0z" fill="#FFFFF5" p-id="213588"></path><path d="M512 256c-70.613333 0-128 57.386667-128 128s57.386667 128 128 128 128-57.386667 128-128-57.386667-128-128-128z" fill="#FFBC47" p-id="213589"></path><path d="M512 270.933333a113.066667 113.066667 0 1 0 0 226.133334 113.066667 113.066667 0 0 0 0-226.133334z m0-29.866666a142.933333 142.933333 0 1 1 0 285.866666 142.933333 142.933333 0 0 1 0-285.866666z" fill="#2E2E38" p-id="213590"></path><path d="M234.666667 816.853333C234.666667 683.946667 358.826667 576 512 576s277.333333 107.946667 277.333333 240.853333c0 5.077333-0.192 10.133333-0.533333 15.146667h-553.6a213.44 213.44 0 0 1-0.533333-15.146667z" fill="#2ADEA5" p-id="213591"></path><path d="M306.090667 635.306667a295.594667 295.594667 0 0 1 92.8-54.378667A325.205333 325.205333 0 0 1 512 561.066667c39.381333 0 77.077333 6.613333 113.109333 19.861333a295.594667 295.594667 0 0 1 92.8 54.4c27.093333 23.552 48.128 50.645333 63.061334 81.28A226.133333 226.133333 0 0 1 804.266667 816.853333a14.933333 14.933333 0 1 1-29.866667 0 196.629333 196.629333 0 0 0-20.266667-87.168c-13.162667-26.986667-31.765333-50.922667-55.829333-71.829333a265.984 265.984 0 0 0-83.498667-48.896A295.573333 295.573333 0 0 0 512 590.933333c-35.84 0-70.101333 6.016-102.805333 18.026667a265.984 265.984 0 0 0-83.498667 48.896c-24.064 20.906667-42.666667 44.842667-55.808 71.829333a196.629333 196.629333 0 0 0-20.288 87.168 14.933333 14.933333 0 1 1-29.866667 0 226.133333 226.133333 0 0 1 23.296-100.245333c14.933333-30.634667 35.946667-57.728 63.061334-81.28z" fill="#2E2E38" p-id="213592"></path><path d="M517.333333 661.333333c-17.706667 0-32 14.293333-32 32s14.293333 32 32 32 32-14.293333 32-32-14.293333-32-32-32z" fill="#FFBC47" p-id="213593"></path></svg>