<?xml version="1.0" standalone="no"?><!DOCTYPE svg PUBLIC "-//W3C//DTD SVG 1.1//EN" "http://www.w3.org/Graphics/SVG/1.1/DTD/svg11.dtd"><svg t="1751962566093" class="icon" viewBox="0 0 1024 1024" version="1.1" xmlns="http://www.w3.org/2000/svg" p-id="142776" xmlns:xlink="http://www.w3.org/1999/xlink" width="200" height="200"><path d="M327 852.2c-11 0-20-9-20-20V364.1h410v468.1c0 11-9 20-20 20H327z" fill="#2269F9" p-id="142777"></path><path d="M707 374.1v458.1c0 5.5-4.5 10-10 10H327c-5.5 0-10-4.5-10-10V374.1h390m20-20H297v478.1c0 16.6 13.4 30 30 30h370c16.6 0 30-13.4 30-30V354.1z" fill="#101780" p-id="142778"></path><path d="M367.4 241.6v-49.8c0-11 9-20 20-20h43.1c11 0 20 9 20 20v49.8h-83.1z" fill="#FF8F19" p-id="142779"></path><path d="M430.6 181.8c5.5 0 10 4.5 10 10v39.8h-63.1v-39.8c0-5.5 4.5-10 10-10h43.1m0-20h-43.1c-16.6 0-30 13.4-30 30v59.8h103.1v-59.8c0-16.5-13.5-30-30-30z" fill="#101780" p-id="142780"></path><path d="M562.5 241.6v-49.8c0-11 9-20 20-20H639c11 0 20 9 20 20v49.8h-96.5z" fill="#F0CC37" p-id="142781"></path><path d="M639 181.8c5.5 0 10 4.5 10 10v39.8h-76.6v-39.8c0-5.5 4.5-10 10-10H639m0-20h-56.6c-16.6 0-30 13.4-30 30v59.8H669v-59.8c0-16.5-13.4-30-30-30z" fill="#101780" p-id="142782"></path><path d="M307 359.8v-98.2c0-11 9-20 20-20h370c11 0 20 9 20 20v98.2H307z" fill="#101780" p-id="142783"></path><path d="M697 251.7c5.5 0 10 4.5 10 10v88.2H317v-88.2c0-5.5 4.5-10 10-10h370m0-20H327c-16.6 0-30 13.4-30 30v108.2h430V261.7c0-16.6-13.4-30-30-30z" fill="#101780" p-id="142784"></path><path d="M569.6 597.9H535v-83.3l-73.3 93.3h34.6v83.4z" fill="#FFE164" p-id="142785"></path><path d="M382.3 300h53.3v10.7h-53.3z" fill="#FF8F19" p-id="142786"></path><path d="M403.7 278.7h10.7V332h-10.7z" fill="#FF8F19" p-id="142787"></path><path d="M584.1 300h53.3v10.7h-53.3z" fill="#FFE164" p-id="142788"></path><path d="M307 439.2h410v8.5H307z" fill="#2269F9" p-id="142789"></path><path d="M727 429.2H297v28.5h430v-28.5z" fill="#101780" p-id="142790"></path><path d="M307 767.7h410v8.5H307z" fill="#2269F9" p-id="142791"></path><path d="M727 757.7H297v28.5h430v-28.5z" fill="#101780" p-id="142792"></path></svg>