<?xml version="1.0" standalone="no"?><!DOCTYPE svg PUBLIC "-//W3C//DTD SVG 1.1//EN" "http://www.w3.org/Graphics/SVG/1.1/DTD/svg11.dtd"><svg t="1752038583626" class="icon" viewBox="0 0 1024 1024" version="1.1" xmlns="http://www.w3.org/2000/svg" p-id="29613" xmlns:xlink="http://www.w3.org/1999/xlink" width="200" height="200"><path d="M0.847053 0m511.232983 0l0.01334 0q511.232984 0 511.232984 511.232984l0 1.534032q0 511.232984-511.232984 511.232984l-0.01334 0q-511.232984 0-511.232983-511.232984l0-1.534032q0-511.232984 511.232983-511.232984Z" fill="#73DDDE" opacity=".5" p-id="29614"></path><path d="M0.67364 511.513111c0 282.288647 228.837621 511.139608 511.126269 511.139608s511.139608-228.850961 511.139608-511.139608S794.101895 0.386843 511.799909 0.386843 0.67364 229.224464 0.67364 511.513111z" fill="#73DDDE" opacity=".5" p-id="29615"></path><path d="M233.046206 771.631655A468.600221 468.600221 0 0 0 274.131596 964.146056a508.81855 508.81855 0 0 0 237.654973 58.506663c282.301987 0 511.139608-228.850961 511.139608-511.139608a514.341067 514.341067 0 0 0-8.297114-92.17534A468.386791 468.386791 0 0 0 703.247157 301.470722C443.542135 301.470722 233.046206 511.953312 233.046206 771.631655z" fill="#4ACED1" p-id="29616"></path><path d="M555.846649 675.494509H359.023618v54.024621L330.664027 773.685925h362.832019l-22.196782-34.682473h-48.835589a66.883814 66.883814 0 0 1-66.617026-63.508943z" fill="#E5E5E5" p-id="29617"></path><path d="M808.214994 241.323311H577.549873L400.856015 629.473536h154.910597V424.193317a66.897154 66.897154 0 0 1 66.697063-66.697062h199.197447v-103.380447a13.166 13.166 0 0 0-13.446128-12.792497z" fill="#4C4C4C" p-id="29618"></path><path d="M555.766612 662.822067v-21.34306H202.498951a15.927259 15.927259 0 0 1-16.007295-15.753846v-382.841138a15.927259 15.927259 0 0 1 16.007295-15.753846h619.162171a15.927259 15.927259 0 0 1 16.007295 15.753846V357.496255h41.245463V205.973868a16.007295 16.007295 0 0 0-16.007295-16.007295h-701.653097a16.007295 16.007295 0 0 0-16.007295 16.007295v453.540025a16.007295 16.007295 0 0 0 16.007295 16.007295h197.77013v-12.672442z" fill="#FFFFFF" p-id="29619"></path><path d="M555.766612 672.413105v-9.591038H359.023618v12.672442h196.823031q-0.080036-1.520693-0.080037-3.081404z" fill="#FFFFFF" p-id="29620"></path><path d="M218.853071 241.323311a13.166 13.166 0 0 0-13.446128 12.792497v362.565232a13.17934 13.17934 0 0 0 13.446128 12.792496H400.856015l176.667179-388.176903z" fill="#7F7F7F" p-id="29621"></path><path d="M305.665968 812.743724L330.664027 773.685925H256.523572a16.007295 16.007295 0 0 0-16.007295 16.007295v28.279554a16.007295 16.007295 0 0 0 16.007295 16.007295H767.689859a16.007295 16.007295 0 0 0 16.007295-16.007295V789.69322a16.007295 16.007295 0 0 0-16.007295-16.007295h-74.193813l25.011399 39.004442z" fill="#FFFFFF" p-id="29622"></path><path d="M305.665968 812.743724h412.841477l-25.011399-39.004442h-362.832019l-24.998059 39.004442zM845.431955 525.332743v4.001824a32.01459 32.01459 0 0 1-32.01459 32.01459h-89.160633a32.01459 32.01459 0 0 1-32.01459-32.01459v-4.001824h-108.862946v137.916186a43.339751 43.339751 0 0 0 43.339751 43.339751h285.249997a43.353091 43.353091 0 0 0 43.339751-43.339751V525.332743z m66.536989-132.900567H626.718947a43.339751 43.339751 0 0 0-43.339751 43.339751v50.302925h108.876285v-4.001824a32.01459 32.01459 0 0 1 32.01459-32.01459h89.173973a32.01459 32.01459 0 0 1 32.014589 32.01459v4.001824h102.713477a284.983208 284.983208 0 0 0 5.495838-62.054947 43.36643 43.36643 0 0 0-41.699004-31.587729z" fill="#FFFFFF" p-id="29623"></path></svg>