<?xml version="1.0" standalone="no"?><!DOCTYPE svg PUBLIC "-//W3C//DTD SVG 1.1//EN" "http://www.w3.org/Graphics/SVG/1.1/DTD/svg11.dtd"><svg t="1752038172257" class="icon" viewBox="0 0 1024 1024" version="1.1" xmlns="http://www.w3.org/2000/svg" p-id="10780" xmlns:xlink="http://www.w3.org/1999/xlink" width="200" height="200"><path d="M128 640h810.666667v256H128z" fill="#00A0FE" p-id="10781"></path><path d="M919.637333 130.389333c22.272 0 40.362667 18.816 40.362667 42.069334v681.429333c0 23.253333-18.090667 42.112-40.362667 42.112H104.362667c-22.272 0-40.362667-18.858667-40.362667-42.112V172.501333c0-23.296 18.090667-42.112 40.362667-42.112h815.274666zM128 665.6v166.4h768v-166.4H128z m416.170667 47.872v64h-64v-64h64z m-80.469334-433.066667l102.698667 178.901334 52.778667-62.08a32 32 0 0 1 20.394666-11.008l4.010667-0.256H832v64h-173.653333l-72.661334 85.504a32 32 0 0 1-49.92-1.365334l-2.218666-3.413333-100.565334-175.274667-58.112 81.194667a32 32 0 0 1-22.186666 13.141333l-3.84 0.213334H192v-64h140.373333l77.525334-108.288a32 32 0 0 1 53.76 2.688zM128 608h768V194.389333H128v413.610667z" fill="#000000" p-id="10782"></path></svg>