<?xml version="1.0" standalone="no"?><!DOCTYPE svg PUBLIC "-//W3C//DTD SVG 1.1//EN" "http://www.w3.org/Graphics/SVG/1.1/DTD/svg11.dtd"><svg t="1751964307755" class="icon" viewBox="0 0 1082 1024" version="1.1" xmlns="http://www.w3.org/2000/svg" p-id="202315" xmlns:xlink="http://www.w3.org/1999/xlink" width="211.328125" height="200"><path d="M88.649972 922.296204a25.324419 25.324419 0 0 0 24.889291 25.672521h889.748669a25.324419 25.324419 0 0 0 24.889292-25.672521V334.758074H88.649972z" fill="#99FFD8" p-id="202316"></path><path d="M43.512748 934.073654c0 49.691558 37.10187 89.926346 82.935297 89.926346h872.662663c45.775411 0 82.906289-40.263796 82.906289-89.926346V264.557507H43.512748z m58.481133-606.074561h921.512975V934.073654c0 14.504249-10.936204 26.484759-24.396148 26.48476H126.448045c-13.488952 0-24.454164-11.864476-24.454164-26.48476zM997.602266 31.909348H139.559887C94.509688 31.909348 58.016997 67.212691 58.016997 110.754448v93.146289h1021.09915V110.754448C1079.116147 67.212691 1042.623456 31.909348 997.602266 31.909348z" fill="#FFEB99" p-id="202317"></path><path d="M82.645212 94.538697h746.823796v19.058583H82.645212z" fill="#475059" p-id="202318"></path><path d="M949.216091 75.422096a21.814391 21.814391 0 1 0 21.147195 21.785383 21.466289 21.466289 0 0 0-21.147195-21.785383z" fill="#FF926E" p-id="202319"></path><path d="M862.103569 75.393088h42.410425v43.744816h-42.410425z" fill="#ADEBF6" p-id="202320"></path><path d="M146.05779 384.652691h760.892918v196.213485H146.05779z" fill="#97D7FF" p-id="202321"></path><path d="M168.423343 408.613711h143.73711v148.262436H168.423343zM591.135184 408.613711h143.737111v148.262436h-143.737111z" fill="#FFFFFF" p-id="202322"></path><path d="M591.135184 649.993428h293.449972v66.66153H591.135184z" fill="#FF9999" p-id="202323"></path><path d="M568.769632 739.716714h338.181076v-112.785043H568.769632z m22.365552-89.752295h293.449972v66.719547H591.135184z" fill="#475059" p-id="202324"></path><path d="M11.603399 456.883853a11.603399 11.603399 0 0 1-11.603399-11.6034V255.274788a34.810198 34.810198 0 0 1 34.810198-34.810199h212.71932a11.603399 11.603399 0 0 1 0 23.206799H34.810198a11.603399 11.603399 0 0 0-11.603399 11.6034v190.005665a11.603399 11.603399 0 0 1-11.6034 11.6034zM97.903683 997.892351H34.810198a34.810198 34.810198 0 0 1-34.810198-34.810198V496.045326a11.603399 11.603399 0 0 1 23.206799 0v467.036827a11.603399 11.603399 0 0 0 11.603399 11.603399h63.093485a11.603399 11.603399 0 0 1 0 23.206799zM1026.90085 997.892351h-165.348442a11.603399 11.603399 0 0 1 0-23.206799h165.348442a11.603399 11.603399 0 0 0 11.603399-11.603399V255.274788a11.603399 11.603399 0 0 0-11.603399-11.6034h-30.952068a11.603399 11.603399 0 0 1 0-23.206799H1026.90085a34.810198 34.810198 0 0 1 34.810198 34.810199v707.807365a34.810198 34.810198 0 0 1-34.810198 34.810198z" fill="#333333" p-id="202325"></path><path d="M979.529972 243.671388H902.164306a11.603399 11.603399 0 0 1 0-23.206799h77.365666a11.603399 11.603399 0 0 1 0 23.206799zM851.892578 243.671388h-554.062323a11.603399 11.603399 0 0 1 0-23.206799h554.062323a11.603399 11.603399 0 0 1 0 23.206799zM756.570652 997.892351H178.953428c-27.529065 0-49.865609-5.192521-49.865609-11.603399s22.336544-11.603399 49.865609-11.6034h577.617224c27.529065 0 49.865609 5.192521 49.865609 11.6034s-22.336544 11.603399-49.865609 11.603399z" fill="#333333" p-id="202326"></path><path d="M176.313654 647.092578h293.449972v66.66153H176.313654z" fill="#FF9999" p-id="202327"></path><path d="M153.948102 736.815864h338.181076v-112.785042H153.948102z m22.365552-89.752295h293.449972v66.719547H176.313654z" fill="#475059" p-id="202328"></path><path d="M23.003739 137.848385C16.708895 137.848385 11.603399 135.904816 11.603399 133.439093V13.111841C11.603399 5.8017 26.977904 0 45.833428 0H191.456091c6.294844 0 11.40034 1.943569 11.40034 4.380283S197.692918 8.70255 191.456091 8.70255H45.833428c-6.265836 0-11.40034 1.972578-11.40034 4.380283V133.439093c0 2.465722-5.105496 4.409292-11.429349 4.409292zM638.477054 197.25779H48.705269C29.820737 197.25779 14.504249 191.456091 14.504249 184.145949v-29.008499c0-2.436714 5.134504-4.380283 11.429349-4.380283s11.40034 1.943569 11.40034 4.380283v29.008499c0 2.407705 5.134504 4.380283 11.429348 4.380283H638.477054c6.294844 0 11.40034 1.943569 11.40034 4.351275S644.771898 197.25779 638.477054 197.25779zM821.578697 197.25779h-132.220737c-6.294844 0-11.429348-1.943569-11.429348-4.380283s5.134504-4.351275 11.429348-4.351275h132.220737c6.294844 0 11.40034 1.943569 11.40034 4.351275S827.873541 197.25779 821.578697 197.25779zM1030.38187 197.25779h-158.734505c-6.294844 0-11.40034-1.943569-11.40034-4.380283s5.105496-4.351275 11.40034-4.351275h158.734505c6.294844 0 11.40034-1.972578 11.40034-4.380283V15.287479c0-2.407705-5.105496-4.351275-11.40034-4.351275H697.451331c-6.323853 0-11.429348-1.972578-11.429348-4.380283s5.105496-4.380283 11.429348-4.380284H1030.38187c18.855524 0 34.230028 5.8017 34.230028 13.111842v168.85847C1064.611898 191.456091 1049.237394 197.25779 1030.38187 197.25779zM646.541416 10.936204h-18.072294c-6.294844 0-11.40034-1.972578-11.40034-4.380283s5.105496-4.380283 11.40034-4.380284h18.072294c6.323853 0 11.429348 1.972578 11.429349 4.380284s-5.105496 4.380283-11.429349 4.380283zM578.052351 10.936204H245.121813c-6.294844 0-11.40034-1.972578-11.40034-4.380283S238.826969 2.175637 245.121813 2.175637h332.930538c6.323853 0 11.429348 1.972578 11.429349 4.380284s-5.105496 4.380283-11.429349 4.380283z" fill="#333333" p-id="202329"></path><path d="M160.968159 818.648839H472.838527v26.339716H160.968159zM578.690538 812.847139H890.560907v26.339717H578.690538z" fill="#475059" p-id="202330"></path></svg>