<?xml version="1.0" standalone="no"?><!DOCTYPE svg PUBLIC "-//W3C//DTD SVG 1.1//EN" "http://www.w3.org/Graphics/SVG/1.1/DTD/svg11.dtd"><svg t="1752038516171" class="icon" viewBox="0 0 1024 1024" version="1.1" xmlns="http://www.w3.org/2000/svg" p-id="27650" xmlns:xlink="http://www.w3.org/1999/xlink" width="200" height="200"><path d="M274.9 127H927v79H274.9zM927 369.1v79H706.1c-9.7-29.3-25.1-56-44.9-79H927zM927 611.1v79h-25.8c-7.3-29.1-21.4-55.9-40.9-79H927z" fill="#FFC228" p-id="27651"></path><path d="M478.1 371.6c89.1 0 161.5 71 161.5 158.4 0 2.1-0.1 4.1-0.1 6.2-0.9 28.2 19 52.9 46.8 57.8 72.2 12.9 124.6 67.6 124.6 130.1 0 38.3-19.7 74.9-54 100.2-8.3 6.2-17.3 11.5-26.7 16H366.8c-1.5-0.1-2.9-0.2-4.4-0.2-1.1 0-2.3 0-3.4 0.1-1 0.1-2 0.1-3.1 0.1h-2.1c-110.3 0-200.1-69.1-200.1-154.1 0-62.4 50.9-120 126.6-143.2 20-6.1 35.1-22.8 39.1-43.4 14.8-74.2 81.5-128 158.7-128m0-56.9c-106.2 0-194.7 74.8-214.3 173.8C166.4 518.4 97 595.6 97 686c0 116.5 115 211 256.9 211 2.9 0 5.7 0 8.6-0.2v0.2h379.4c17.6-7 34.1-16.2 48.8-27.1 47.1-34.8 77.1-87.3 77.1-145.9 0-92-73.6-168.6-171.4-186.1 0.1-2.6 0.2-5.3 0.2-8-0.2-118.8-98-215.2-218.5-215.2z" fill="#1218FF" p-id="27652"></path><path d="M394.9 644.7h-37.1c-10.2 0-18.6 6.9-18.6 15.5V753c0 8.5 8.3 15.5 18.6 15.5h37.1c10.2 0 18.6-6.9 18.6-15.5v-92.8c0-8.5-8.3-15.5-18.6-15.5zM493.9 545.8h-37.1c-10.2 0-18.6 12.5-18.6 27.8v167c0 15.4 8.3 27.8 18.6 27.8h37.1c10.2 0 18.6-12.5 18.6-27.8v-167c-0.1-15.4-8.4-27.8-18.6-27.8zM592.8 595.3h-37.1c-10.2 0-18.6 9.7-18.6 21.6v129.9c0 12 8.3 21.6 18.6 21.6h37.1c10.2 0 18.6-9.7 18.6-21.6V616.9c0-11.9-8.3-21.6-18.6-21.6z" fill="#1218FF" p-id="27653"></path></svg>