<?xml version="1.0" standalone="no"?><!DOCTYPE svg PUBLIC "-//W3C//DTD SVG 1.1//EN" "http://www.w3.org/Graphics/SVG/1.1/DTD/svg11.dtd"><svg t="1751964699523" class="icon" viewBox="0 0 1024 1024" version="1.1" xmlns="http://www.w3.org/2000/svg" p-id="255211" xmlns:xlink="http://www.w3.org/1999/xlink" width="200" height="200"><path d="M161.185185 151.703704m94.814815 0l379.259259 0q94.814815 0 94.814815 94.814815l0 568.888888q0 94.814815-94.814815 94.814815l-379.259259 0q-94.814815 0-94.814815-94.814815l0-568.888888q0-94.814815 94.814815-94.814815Z" fill="#94E2E4" p-id="255212"></path><path d="M312.888889 94.814815m37.925926 0l189.629629 0q37.925926 0 37.925926 37.925926l0 56.888889q0 37.925926-37.925926 37.925926l-189.629629 0q-37.925926 0-37.925926-37.925926l0-56.888889q0-37.925926 37.925926-37.925926Z" fill="#FDD178" p-id="255213"></path><path d="M445.62963 0a56.888889 56.888889 0 0 1 56.888889 56.888889v56.888889h-113.777778v-56.888889a56.888889 56.888889 0 0 1 56.888889-56.888889z" fill="#FED375" p-id="255214"></path><path d="M701.62963 862.814815m-142.222223 0a142.222222 142.222222 0 1 0 284.444445 0 142.222222 142.222222 0 1 0-284.444445 0Z" fill="#FE6962" p-id="255215"></path><path d="M701.62963 946.213926c-46.212741-31.478519-64.18963-57.078519-71.111111-73.216-6.599111-15.435852-6.314667-29.316741 0.815407-40.106667 7.111111-10.789926 20.385185-17.483852 34.62637-17.483852 11.510519 0 21.617778 4.456296 28.425482 12.553482l7.243852 8.590222 7.243851-8.590222c6.826667-8.097185 16.914963-12.553481 28.444445-12.553482 14.222222 0 27.496296 6.693926 34.607407 17.483852 7.130074 10.808889 7.395556 24.651852 0.796445 40.106667-6.902519 16.137481-24.879407 41.737481-71.092148 73.216z" fill="#FE6765" p-id="255216"></path><path d="M701.62963 934.684444c40.372148-28.444444 56.225185-51.048296 62.388148-65.422222 3.678815-8.628148 6.674963-21.029926 0-31.156148-5.30963-8.021333-15.796148-13.217185-26.718815-13.217185-5.006222 0-14.449778 1.194667-21.162667 9.178074l-14.506666 17.199407-14.506667-17.199407c-6.712889-7.983407-16.156444-9.178074-21.162667-9.178074-10.922667 0-21.428148 5.195852-26.718815 13.217185-6.674963 10.126222-3.678815 22.528 0 31.156148 6.162963 14.373926 22.034963 36.977778 62.388149 65.422222m0 22.945186c-45.89037-30.283852-69.95437-57.837037-79.815111-80.914963-18.526815-43.311407 13.027556-70.788741 44.145777-70.788741 13.274074 0 26.472296 5.006222 35.669334 15.928889 9.197037-10.922667 22.395259-15.928889 35.669333-15.928889 31.118222 0 62.672593 27.477333 44.145778 70.788741-9.860741 23.077926-33.943704 50.631111-79.815111 80.914963z" fill="#062CA2" p-id="255217"></path><path d="M336.175407 543.952593a36.731259 36.731259 0 0 1-4.570074-14.942815v-31.118222c0-3.034074-0.18963-7.831704 0-12.098371s0-144.459852 0-144.459852l62.786371 41.585778a180.148148 180.148148 0 0 1 58.595555-12.079407 164.977778 164.977778 0 0 1 56.888889 12.079407s3.792593-2.863407 64.151704-41.585778c0 66.730667-0.151704 16.592593 0 66.730667s0.151704 2.958222 0.246518 5.44237c0.208593 4.380444-0.303407-0.70163-0.246518 27.951408V536.613926c0.872296 40.675556-7.774815 40.978963-7.774815 40.978963" fill="#FFFFFF" p-id="255218"></path><path d="M398.487704 460.363852c-5.916444 0-10.922667-6.769778-10.922667-14.791111 0-8.021333 5.006222-14.810074 10.922667-14.810074 5.935407 0 10.94163 6.788741 10.941629 14.791111 0 8.040296-5.006222 14.810074-10.941629 14.810074z" fill="#062CA2" p-id="255219"></path><path d="M398.487704 435.503407c-2.920296 0-6.181926 4.304593-6.181926 10.050371 0 5.764741 3.26163 10.069333 6.181926 10.069333 2.939259 0 6.200889-4.304593 6.200889-10.05037 0-5.764741-3.26163-10.069333-6.200889-10.069334m0-9.481481c8.666074 0 15.68237 8.741926 15.68237 19.531852 0 10.808889-7.016296 19.550815-15.68237 19.550815-8.647111 0-15.663407-8.741926-15.663408-19.531852 0-10.808889 7.016296-19.550815 15.663408-19.550815z" fill="#062CA2" p-id="255220"></path><path d="M491.804444 445.572741a19.550815 15.663407 90 1 0 31.326815 0 19.550815 15.663407 90 1 0-31.326815 0Z" fill="#062CA2" p-id="255221"></path><path d="M427.937185 466.735407a27.420444 7.186963 0 1 0 54.840889 0 27.420444 7.186963 0 1 0-54.840889 0Z" fill="#707070" p-id="255222"></path><path d="M348.197926 542.814815a183.220148 183.220148 0 0 0 0 48.393481c14.411852 71.186963 163.877926 76.193185 226.076444-14.298074" fill="#FFFFFF" p-id="255223"></path><path d="M434.062222 501.096296c6.352593-1.934222 11.870815-5.575111 16.042667-8.419555-2.844444 3.678815-8.533333 6.959407-16.042667 8.419555z m-17.066666 0c-7.509333-1.460148-13.198222-4.740741-16.042667-8.419555 4.171852 2.844444 9.671111 6.485333 16.023704 8.419555z" fill="#707070" p-id="255224"></path><path d="M425.528889 506.633481c-17.313185 0-31.345778-8.590222-31.345778-19.190518 0-2.142815 0.568889-3.015111 1.649778-3.015111 4.171852 0 15.890963 13.255111 29.696 13.255111 13.805037 0 25.524148-13.255111 29.696-13.255111 1.061926 0 1.649778 0.872296 1.649778 3.015111 0 10.600296-14.032593 19.190519-31.345778 19.190518z" fill="#062CA2" p-id="255225"></path><path d="M503.808 499.01037c2.863407-1.554963 5.461333-3.299556 7.736889-4.93037-1.896296 1.896296-4.513185 3.602963-7.736889 4.93037z m-31.175111 0c-3.223704-1.327407-5.859556-3.034074-7.736889-4.93037 2.275556 1.630815 4.873481 3.375407 7.736889 4.93037z" fill="#707070" p-id="255226"></path><path d="M488.220444 506.633481c-17.313185 0-31.345778-8.590222-31.345777-19.190518 0-2.085926 0.530963-2.901333 1.517037-2.901333 4.096 0 15.890963 14.127407 29.82874 14.127407 13.918815 0 25.732741-14.127407 29.809778-14.127407 1.005037 0 1.517037 0.83437 1.517037 2.901333 0 10.600296-14.032593 19.190519-31.326815 19.190518z" fill="#062CA2" p-id="255227"></path><path d="M459.96563 488.96a12.136296 12.136296 0 0 0-6.181926 0v-13.349926h6.181926v13.349926z" fill="#FFFFFF" p-id="255228"></path><path d="M449.042963 470.869333h15.663407v26.168889s-3.90637-3.754667-7.831703-3.754666c-3.90637 0-7.831704 3.754667-7.831704 3.754666v-26.168889z" fill="#062CA2" p-id="255229"></path><path d="M237.037037 606.814815m28.444444 0l113.777778 0q28.444444 0 28.444445 28.444444l0 0q0 28.444444-28.444445 28.444445l-113.777778 0q-28.444444 0-28.444444-28.444445l0 0q0-28.444444 28.444444-28.444444Z" fill="#FDD178" p-id="255230"></path><path d="M237.037037 739.555556m28.444444 0l208.592593 0q28.444444 0 28.444445 28.444444l0 0q0 28.444444-28.444445 28.444444l-208.592593 0q-28.444444 0-28.444444-28.444444l0 0q0-28.444444 28.444444-28.444444Z" fill="#FDD178" p-id="255231"></path></svg>