<?xml version="1.0" standalone="no"?><!DOCTYPE svg PUBLIC "-//W3C//DTD SVG 1.1//EN" "http://www.w3.org/Graphics/SVG/1.1/DTD/svg11.dtd"><svg t="1752038611067" class="icon" viewBox="0 0 1205 1024" version="1.1" xmlns="http://www.w3.org/2000/svg" p-id="31662" xmlns:xlink="http://www.w3.org/1999/xlink" width="235.3515625" height="200"><path d="M0 148.645161h1024v677.161291c0 24.223656-19.819355 44.043011-44.043011 44.04301H44.043011c-24.223656 0-44.043011-19.819355-44.043011-44.04301V148.645161z m88.086022 412.903226v209.204301h847.827956v-209.204301H88.086022z m0-308.301075v209.204301h209.204301V253.247312H88.086022z" fill="#E9F1FF" p-id="31663"></path><path d="M979.956989 869.849462H44.043011c-24.223656 0-44.043011-19.819355-44.043011-44.04301V148.645161h1024v677.161291c0 24.223656-19.819355 44.043011-44.043011 44.04301zM11.010753 159.655914v666.150538c0 18.167742 14.864516 33.032258 33.032258 33.032258h935.913978c18.167742 0 33.032258-14.864516 33.032258-33.032258V159.655914H11.010753z m935.913978 622.107527H77.075269v-231.225807h869.849462v231.225807z m-858.838709-11.010753h847.827956v-209.204301H88.086022v209.204301z m220.215053-297.290322H77.075269V242.236559h231.225806v231.225807z m-220.215053-11.010753h209.204301V253.247312H88.086022v209.204301z" fill="#8AB6FF" p-id="31664"></path><path d="M1024 159.655914H0V44.043011c0-24.223656 19.819355-44.043011 44.043011-44.043011h935.913978c24.223656 0 44.043011 19.819355 44.043011 44.043011v115.612903zM11.010753 148.645161h1001.978494V44.043011c0-18.167742-14.864516-33.032258-33.032258-33.032258H44.043011c-18.167742 0-33.032258 14.864516-33.032258 33.032258v104.60215z" fill="#8AB6FF" p-id="31665"></path><path d="M111.75914 103.501075c-12.111828 0-22.572043-9.909677-22.572043-22.021505s9.35914-22.021505 21.470968-22.021505h0.550537c12.111828 0 22.021505 9.909677 22.021506 22.021505s-9.35914 22.021505-21.470968 22.021505z" fill="#E9F1FF" p-id="31666"></path><path d="M111.75914 103.501075c-12.111828 0-22.572043-9.909677-22.572043-22.021505s9.35914-22.021505 21.470968-22.021505h0.550537c12.111828 0 22.021505 9.909677 22.021506 22.021505s-9.35914 22.021505-21.470968 22.021505z m-0.550538-33.032258c-6.055914 0-10.460215 4.954839-10.460215 11.010753s4.954839 11.010753 11.56129 11.010753c6.055914 0 11.010753-4.954839 11.010753-11.010753s-4.954839-11.010753-11.010753-11.010753h-1.101075z" fill="#8AB6FF" p-id="31667"></path><path d="M206.451613 103.501075h-1.651613c-12.111828 0-22.021505-9.909677-22.021505-22.021505s9.909677-22.021505 22.021505-22.021505h1.651613c12.111828 0 22.021505 9.909677 22.021505 22.021505s-9.909677 22.021505-22.021505 22.021505z" fill="#E9F1FF" p-id="31668"></path><path d="M206.451613 103.501075h-1.651613c-12.111828 0-22.021505-9.909677-22.021505-22.021505s9.909677-22.021505 22.021505-22.021505h1.651613c12.111828 0 22.021505 9.909677 22.021505 22.021505s-9.909677 22.021505-22.021505 22.021505z m-1.651613-33.032258c-6.055914 0-11.010753 4.954839-11.010753 11.010753s4.954839 11.010753 11.010753 11.010753h1.651613c6.055914 0 11.010753-4.954839 11.010753-11.010753s-4.954839-11.010753-11.010753-11.010753h-1.651613z" fill="#8AB6FF" p-id="31669"></path><path d="M300.043011 103.501075c-12.111828 0-22.572043-9.909677-22.572043-22.021505s9.35914-22.021505 21.470967-22.021505h0.550538c12.111828 0 22.021505 9.909677 22.021505 22.021505s-9.35914 22.021505-21.470967 22.021505z" fill="#E9F1FF" p-id="31670"></path><path d="M300.043011 103.501075c-12.111828 0-22.572043-9.909677-22.572043-22.021505s9.35914-22.021505 21.470967-22.021505h0.550538c12.111828 0 22.021505 9.909677 22.021505 22.021505s-9.35914 22.021505-21.470967 22.021505z m-1.101076-33.032258c-6.055914 0-10.460215 4.954839-10.460215 11.010753s4.954839 11.010753 11.561291 11.010753c6.055914 0 11.010753-4.954839 11.010752-11.010753s-4.954839-11.010753-11.010752-11.010753h-1.101076z" fill="#8AB6FF" p-id="31671"></path><path d="M523.010753 269.763441H368.860215c-3.303226 0-5.505376-2.202151-5.505376-5.505376s2.202151-5.505376 5.505376-5.505377h154.150538c3.303226 0 5.505376 2.202151 5.505376 5.505377s-2.202151 5.505376-5.505376 5.505376zM615.501075 451.44086H368.860215c-3.303226 0-5.505376-2.202151-5.505376-5.505376s2.202151-5.505376 5.505376-5.505376h246.64086c3.303226 0 5.505376 2.202151 5.505377 5.505376s-2.202151 5.505376-5.505377 5.505376zM615.501075 363.354839H368.860215c-3.303226 0-5.505376-2.202151-5.505376-5.505377s2.202151-5.505376 5.505376-5.505376h246.64086c3.303226 0 5.505376 2.202151 5.505377 5.505376s-2.202151 5.505376-5.505377 5.505377zM726.709677 269.763441h-137.634408c-3.303226 0-5.505376-2.202151-5.505377-5.505376s2.202151-5.505376 5.505377-5.505377h137.634408c3.303226 0 5.505376 2.202151 5.505377 5.505377s-2.202151 5.505376-5.505377 5.505376zM930.408602 269.763441h-137.634408c-3.303226 0-5.505376-2.202151-5.505377-5.505376s2.202151-5.505376 5.505377-5.505377h137.634408c3.303226 0 5.505376 2.202151 5.505376 5.505377s-2.202151 5.505376-5.505376 5.505376zM929.307527 363.354839H682.666667c-3.303226 0-5.505376-2.202151-5.505377-5.505377s2.202151-5.505376 5.505377-5.505376h246.64086c3.303226 0 5.505376 2.202151 5.505376 5.505376s-2.202151 5.505376-5.505376 5.505377zM639.724731 704.688172H203.698925c-3.303226 0-5.505376-2.202151-5.505377-5.505376s2.202151-5.505376 5.505377-5.505377h436.025806c3.303226 0 5.505376 2.202151 5.505377 5.505377s-2.752688 5.505376-5.505377 5.505376zM639.724731 638.623656H203.698925c-3.303226 0-5.505376-2.202151-5.505377-5.505376s2.202151-5.505376 5.505377-5.505377h436.025806c3.303226 0 5.505376 2.202151 5.505377 5.505377s-2.752688 5.505376-5.505377 5.505376zM946.924731 781.763441h-231.225806v-231.225807h231.225806v231.225807z m-220.215054-11.010753h209.204301v-209.204301h-209.204301v209.204301z" fill="#8AB6FF" p-id="31672"></path></svg>