<?xml version="1.0" standalone="no"?><!DOCTYPE svg PUBLIC "-//W3C//DTD SVG 1.1//EN" "http://www.w3.org/Graphics/SVG/1.1/DTD/svg11.dtd"><svg t="1751964593980" class="icon" viewBox="0 0 1156 1024" version="1.1" xmlns="http://www.w3.org/2000/svg" p-id="240236" xmlns:xlink="http://www.w3.org/1999/xlink" width="225.78125" height="200"><path d="M720.648712 383.022368c0 287.004347-155.77086 248.172352-347.942594 248.172352-192.16231 0-347.933171-4.419366-347.933171-248.172352 0-182.390707 155.77086-330.246285 347.933171-330.246285 192.171733 0 347.942594 147.855578 347.942594 330.246285z" fill="#FF9C9C" p-id="240237"></path><path d="M136.585725 496.691468l-15.510183-8.96123c-8.527774-4.928205-17.149777-26.808305-19.166289-48.631868l-4.626671-50.13954c-2.007089-21.81414 6.002422-37.427975 17.809384-34.695319l21.484336 4.984743" fill="#FFEAD6" p-id="240238"></path><path d="M136.585725 496.691468l-15.510183-8.96123c-8.527774-4.928205-17.149777-26.808305-19.166289-48.631868l-4.626671-50.13954c-2.007089-21.81414 6.002422-37.427975 17.809384-34.695319l21.484336 4.984743" fill="#FFEAD6" p-id="240239"></path><path d="M752.715026 1023.934039v-53.739109c0-21.908369-16.160367-81.452018-64.132629-99.751396-71.331765-36.033378-212.713774-33.753023-212.713774-99.496976v-145.396188c0-43.826161-35.863765-79.689926-79.689926-79.689925h-39.689484c-43.816738 0-79.680503 35.863765-79.680503 79.689925v145.405611c0 84.429672-131.365408 58.215013-204.148308 95.445106C7.001255 900.738333 0 948.286561 0 970.19493v53.739109" fill="#FFEAD6" p-id="240240"></path><path d="M372.875731 578.774825c-184.05857 0.376918-334.722188-3.392264-347.546829-217.915245a322.792728 322.792728 0 0 0-0.791529 22.878933c0.50884 243.752986 156.289123 247.842548 348.451434 247.446784 192.16231-0.386341 348.0274 38.115851 347.433754-248.888496a324.978854 324.978854 0 0 0-0.744414-20.843575c-10.836398 252.488065-162.018279 216.944681-346.802416 217.321599z" fill="#853737" opacity=".2" p-id="240241"></path><path d="M475.878046 625.55037c0-0.782105-0.09423-1.526519-0.113075-2.289777H333.977775l-57.150219 34.676472v113.018916c0 24.989675-16.452478 46.605933-91.091701 68.467187-14.737501 15.953062 18.525528 35.14762 22.049714 40.471589 11.298122-12.664451 90.592284-70.945424 177.500193-70.945424 91.317852 0 168.661462 53.955837 178.753446 66.412983 2.600735-4.127254 39.020454-19.80705 25.809473-33.64937-96.67009-13.286366-113.980057-60.419984-113.980058-70.747542l0.009423-145.415034z" fill="#D59758" opacity=".15" p-id="240242"></path><path d="M616.864291 496.691468l15.510183-8.96123c8.537197-4.928205 17.140354-26.808305 19.166289-48.631868l4.617248-50.13954c2.025935-21.81414-5.992999-37.427975-17.818807-34.695319l-21.484336 4.984743" fill="#FFEAD6" p-id="240243"></path><path d="M616.864291 496.691468l15.510183-8.96123c8.537197-4.928205 17.140354-26.808305 19.166289-48.631868l4.617248-50.13954c2.025935-21.81414-5.992999-37.427975-17.818807-34.695319l-21.484336 4.984743" fill="#FFEAD6" p-id="240244"></path><path d="M136.585725 377.038792s81.612209-25.555053 99.308517-133.674032c0 0 163.158457 64.867619 314.519374 27.515027 0 0 66.450675-6.115497 66.450675 88.349621 0 0 40.085248-39.199491 20.042624-100.137737-20.042624-60.938247-434.435893-98.290838-434.435892-98.290838s-65.885298 161.198482-65.885298 216.237959z" fill="#D59758" opacity=".15" p-id="240245"></path><path d="M616.101032 383.521785c-2.468814-55.633123-13.531363-75.195177-55.699084-75.195177-66.40356 0-246.674102-22.841242-330.934161-107.1013 0 0-30.671717 128.858902-92.891485 153.047626v217.821016c0 24.886023 16.612669 57.018297 36.909713 71.397726l128.255833 90.922087c20.306467 14.388851 53.871031 18.214571 74.60153 18.214571 20.739923 0 54.31391-3.816297 74.601531-18.214571l128.24641-90.922087c20.325313-14.379429 36.928559-46.521126 36.928559-71.397726h-0.018846V383.521785z" fill="#FFEAD6" p-id="240246"></path><path d="M100.853882 427.630635s7.189714 37.880277 35.731843 37.880277v31.199402c0-0.018846-35.731843-11.288699-35.731843-69.079679zM652.935361 427.630635s-7.199137 37.880277-35.741267 37.880277v31.199402c0.009423-0.018846 35.741266-11.288699 35.741267-69.079679z" fill="#D59758" opacity=".15" p-id="240247"></path><path d="M498.323524 224.697888c-154.668375 0-254.589384-99.581783-154.668375 0.329803-79.803001-13.145021-119.558446-40.63178-119.558446-40.63178-2.23324 102.22021-121.358231 135.954387-121.35823 135.954387a294.118678 294.118678 0 0 0 12.362916 39.80256h21.484336c62.219768-24.179301 92.891485-153.047626 92.891485-153.047626 70.728696 97.800844 264.530601 101.211954 330.934161 101.211953 66.384714 0 56.462343 56.820415 56.462343 56.820416 40.763701-57.253871 25.03679-169.688564-118.55019-140.439713z" fill="#853737" opacity=".2" p-id="240248"></path><path d="M752.715026 1023.934039v-53.739109c0-21.908369-16.160367-81.452018-64.132629-99.751396-32.942649-16.640938-66.808747-17.592656-98.724293-28.749434-30.10634 58.035977-111.172017 91.732462-206.494625 91.732462-95.774909 0-177.123275-34.111095-206.899811-92.571105-32.386694 10.770437-65.508379 5.945884-103.812689 25.536207C7.001255 900.738333 0 948.286561 0 970.19493v53.739109" fill="#CDDFBB" p-id="240249"></path><path d="M579.191319 596.320366l-128.24641 90.912664c-20.297044 14.398274-53.861608 18.214571-74.601531 18.214571-20.721077 0-54.295064-3.806874-74.60153-18.214571l-128.255833-90.912664c-36.909713-24.216993-36.909713-105.923431-36.909713-130.809454v106.592461c0 24.886023 16.612669 57.018297 36.909713 71.388303l128.255833 90.922087c20.306467 14.398274 53.871031 18.214571 74.60153 18.214571 20.739923 0 54.31391-3.806874 74.601531-18.214571l128.24641-90.922087c20.325313-14.370006 36.909713-46.511703 36.909713-71.388303v-88.905576c0 24.886023 0 88.896152-36.909713 113.122569z" fill="#D59758" opacity=".15" p-id="240250"></path><path d="M354.416163 874.137332a32.104006 14.426543 0 1 0 64.208012 0 32.104006 14.426543 0 1 0-64.208012 0Z" fill="#FFFFFF" opacity=".54" p-id="240251"></path><path d="M688.59182 870.443534c-32.942649-16.640938-66.808747-17.592656-98.724293-28.749434a119.106144 119.106144 0 0 1-10.808129 16.989587c10.327558 2.921116 20.683385 6.577222 30.916713 11.750424 47.953415 18.299378 64.113782 77.843027 64.113783 99.751396v53.739109h78.634555v-53.739109c-0.009423-21.898946-16.160367-81.433172-64.132629-99.741973z" fill="#3F3F3F" opacity=".05" p-id="240252"></path><path d="M325.252119 499.989502c0 28.76828-27.279453 28.504437-60.938246 28.504437-33.658793 0-60.938247 0.25442-60.938247-28.504437s27.279453-52.090092 60.938247-52.090092c33.658793-0.009423 60.938247 23.312389 60.938246 52.090092zM549.348822 499.989502c0 28.76828-27.279453 28.504437-60.947669 28.504437-33.658793 0-60.928824 0.25442-60.928824-28.504437s27.279453-52.090092 60.928824-52.090092c33.668216-0.009423 60.947669 23.312389 60.947669 52.090092z" fill="#FF9C9C" opacity=".1" p-id="240253"></path><path d="M1156.271896 1023.283855v-63.633211c0-22.878933-16.867088-84.985626-66.912399-104.095378-74.431917-37.559896-153.330315-36.890867-206.485201-105.480552-21.653949-7.359327-34.15821 9.422954-57.008875 9.422954h-124.571458c-22.850665 0-31.783625-18.855332-53.418729-11.486581-68.796991 88.066932-125.202796 64.4907-201.132963 103.341541-68.533148 35.81665-75.826515 85.409659-75.826514 108.27917v63.633212" fill="#FFFFFF" p-id="240254"></path><path d="M513.42852 465.595718l-16.16979-9.338147c-8.895269-5.144933-17.894191-27.967329-20.004932-50.733187l-4.824553-52.316243c-2.110742-22.765858 6.266265-39.067569 18.591489-36.193569s22.398363 5.192048 22.398363 5.192048" fill="#FFEAD6" p-id="240255"></path><path d="M513.42852 465.595718l-16.16979-9.338147c-8.895269-5.144933-17.894191-27.967329-20.004932-50.733187l-4.824553-52.316243c-2.110742-22.765858 6.266265-39.067569 18.591489-36.193569s22.398363 5.192048 22.398363 5.192048" fill="#FFEAD6" p-id="240256"></path><path d="M867.448919 751.770846c0 45.729598-37.437398 83.129304-83.157573 83.129304h-41.395039c-45.729598 0-83.14815-37.409129-83.14815-83.129304v-151.709567c0-45.729598 37.427975-83.129304 83.14815-83.129305h41.395039c45.729598 0 83.157573 37.399706 83.157573 83.129305v151.709567z" fill="#FFEAD6" p-id="240257"></path><path d="M867.448919 770.805214c0 45.739021-37.437398 79.049165-83.157573 79.049165h-41.395039c-45.729598 0-83.14815-33.310144-83.14815-79.049165v-170.743935c0-45.739021 37.427975-83.138727 83.14815-83.138728h41.395039c45.729598 0 83.157573 37.390283 83.157573 83.138728v170.743935z" fill="#FFEAD6" p-id="240258"></path><path d="M867.448919 600.061279c0-0.819797-0.103652-1.592479-0.113075-2.402854H719.386036l-59.637879 36.193568v117.928275c0 16.848243 5.126087 32.546885 13.823474 45.691907 11.778693-13.201559 38.803726-30.765946 99.355632-30.765947 48.349179 0 71.143306 16.179213 81.659323 29.18289a82.328353 82.328353 0 0 0 12.862333-44.10885V600.061279z" fill="#D59758" opacity=".15" p-id="240259"></path><path d="M1014.550661 465.595718l16.179213-9.338147c8.895269-5.144933 17.884768-27.967329 19.995509-50.733187l4.833976-52.316243c2.110742-22.765858-6.247419-39.067569-18.582066-36.193569s-22.407786 5.192048-22.407786 5.192048" fill="#FFEAD6" p-id="240260"></path><path d="M1014.550661 465.595718l16.179213-9.338147c8.895269-5.144933 17.884768-27.967329 19.995509-50.733187l4.833976-52.316243c2.110742-22.765858-6.247419-39.067569-18.582066-36.193569s-22.407786 5.192048-22.407786 5.192048" fill="#FFEAD6" p-id="240261"></path><path d="M1013.759133 544.277388c0 25.979085-17.347659 59.505957-38.521038 74.507301l-133.805953 94.85146c-21.173379 15.039035-56.207923 19.015522-77.843027 19.015522s-56.660225-3.976487-77.843027-19.015522l-133.805953-94.85146c-21.182802-15.001344-38.511615-48.528215-38.511615-74.507301V165.107124c0-25.96024 21.248762-47.190156 47.199579-47.190156h405.931455c25.950817 0 47.218425 21.229916 47.218425 47.190156l-0.018846 379.170264z" fill="#FFEAD6" p-id="240262"></path><path d="M975.247518 569.578021l-133.805953 94.85146c-21.173379 15.020189-56.207923 19.006099-77.843027 19.006099-21.616258 0-56.660225-3.98591-77.843027-19.006099l-133.805953-94.85146c-38.511615-25.29121-38.511615-110.521833-38.511615-136.482073v111.190863c0 25.979085 17.338236 59.487112 38.511615 74.507301l133.805953 94.870306c21.182802 15.010766 56.207923 18.987253 77.843027 18.987253 21.616258 0 56.660225-3.976487 77.843027-18.987253l133.805953-94.870306c21.173379-15.020189 38.521038-48.528215 38.521038-74.507301V451.527247c-0.009423 25.96024-0.009423 92.750141-38.521038 118.050774zM513.42852 340.779264s85.164662-26.657538 103.633653-139.469149c0 0 170.216249 67.703928 328.154389 28.721165 0 0 69.334099-6.398186 69.334099 92.184763 0 0 41.819072-40.914468 20.900113-104.481719-20.900113-63.586097-453.281802-102.568859-453.281801-102.568859s-68.740453 168.180891-68.740453 225.613799z" fill="#D59758" opacity=".15" p-id="240263"></path><path d="M491.030157 317.005149h22.398363c64.914733-25.244095 76.420161-159.671963 76.420161-159.671963 115.619651 60.240948 296.521531 52.65547 365.789669 52.65547s58.912311 112.208542 58.912311 112.208541c77.588607-36.184145 49.828583-278.457727-166.324569-314.481682C632.091785-28.30844 586.541224 74.750413 586.541224 74.750413 507.520327 35.890149 484.528319 122.684983 484.528319 122.684983s-36.005109 85.211777 6.501838 194.320166z" fill="#E4BC96" p-id="240264"></path><path d="M476.151312 393.547809s7.510095 39.538717 37.286631 39.538717v32.537461c-0.009423-0.028269-37.286631-11.778693-37.286631-72.076178zM1052.185941 393.547809s-7.510095 39.538717-37.296053 39.538717v32.537461c0-0.028269 37.296054-11.778693 37.296053-72.076178z" fill="#D59758" opacity=".15" p-id="240265"></path><path d="M607.818255 786.909043l78.954935 157.909871 77.94668-83.08219 75.883052 83.08219 84.156406-156.053549-7.849321-4.673786-96.811434 50.959338h-103.55827l-100.684268-55.001785z" fill="#D59758" opacity=".2" p-id="240266"></path><path d="M890.855538 175.670255C741.039985 206.172359 584.223177 133.625033 584.223177 133.625033c-2.318047 106.639576-106.102467 141.843734-106.102467 141.843733a307.028125 307.028125 0 0 0 12.900024 41.536383h22.398363c64.90531-25.244095 76.420161-159.671963 76.420161-159.671963 115.610228 60.240948 296.512108 52.65547 365.789669 52.65547 69.296407 0 58.902888 112.208542 58.902888 112.208541 42.544639-59.741531 26.139276-177.038468-123.676277-146.526942z" fill="#A87846" opacity=".2" p-id="240267"></path><path d="M764.286414 883.795861m-36.919136 0a36.919136 36.919136 0 1 0 73.838271 0 36.919136 36.919136 0 1 0-73.838271 0Z" fill="#FF9999" p-id="240268"></path><path d="M694.669626 916.201401l-82.837193-132.109822 45.531716-45.550562 107.468796 107.478219z" fill="#FFFFFF" p-id="240269"></path><path d="M836.324901 918.651369l80.585106-134.55979-45.550562-45.550562-107.459372 107.478219z" fill="#FFFFFF" p-id="240270"></path><path d="M615.856035 780.049132l81.178753 100.137737 66.865285-34.167633-69.230447 70.182165-82.837193-132.109822zM763.900073 846.019236l67.477776 39.303143 85.532158-101.2308-80.585106 134.55979z" fill="#D59758" opacity=".15" p-id="240271"></path><path d="M728.733606 1022.548865l8.829309-117.259245h54.813326l17.036702 117.259245" fill="#FF9999" p-id="240272"></path><path d="M736.865616 914.429885s25.573898 25.281787 56.858107 0l-1.347482-9.140265h-54.813326l-0.697299 9.140265z" fill="#E38888" p-id="240273"></path><path d="M1156.271896 1023.283855v-63.633211c0-22.878933-16.867088-84.985626-66.912399-104.095378-56.679071-28.626936-123.949543-39.736599-172.468336-71.463687L770.703446 1023.283855l-1.846899 0.650184-152.086485-242.452618c-55.576585 48.792058-105.810356 37.032211-170.018368 69.88063-68.514302 35.826073-75.807669 85.409659-75.807669 108.288593v63.633211" fill="#7D7F91" p-id="240274"></path><path d="M591.516544 800.035218v106.347464h46.982851v45.117106l130.347729 72.434251-152.06764-242.452618zM947.289612 800.035218v106.347464h-46.982851v45.117106l-129.584469 71.784067 146.187715-239.192276z" fill="#7D7F91" p-id="240275"></path><path d="M591.516544 800.035218l20.315889 83.770065h44.466922v57.442331l114.422937 82.036241-132.222897-71.784067v-45.117106h-46.982851zM945.960976 800.035218l-20.325313 83.770065h-44.457499v57.442331l-110.455872 82.036241 128.24641-71.784067v-45.117106h46.992274z" fill="#3F3F3F" opacity=".2" p-id="240276"></path><path d="M768.847124 1023.934039l1.865745-0.650184h-2.270932l0.405187 0.650184z m320.540642-168.378773c-52.448165-26.487925-113.942365-38.002775-161.283289-64.735697 22.285287 24.188724 44.947493 48.810904 76.504967 64.735697 50.026465 19.109752 66.9124 81.216445 66.9124 104.095378v63.633211h84.768898v-63.633211c-0.018846-22.878933-16.867088-84.985626-66.902976-104.095378z" opacity=".1" p-id="240277"></path></svg>