<?xml version="1.0" standalone="no"?><!DOCTYPE svg PUBLIC "-//W3C//DTD SVG 1.1//EN" "http://www.w3.org/Graphics/SVG/1.1/DTD/svg11.dtd"><svg t="1751964208142" class="icon" viewBox="0 0 1024 1024" version="1.1" xmlns="http://www.w3.org/2000/svg" p-id="189986" xmlns:xlink="http://www.w3.org/1999/xlink" width="200" height="200"><path d="M887.554 959.895h-790V64.105h499.717c5.522 0 10 4.478 10 10s-4.478 10-10 10H117.554v855.789h770c5.522 0 10 4.478 10 10s-4.477 10.001-10 10.001z" fill="" p-id="189987"></path><path d="M146.242 109.034h702.624v805.932H146.242z" fill="#C0F2FF" p-id="189988"></path><path d="M189.354 168.658h323.342v40H189.354zM189.354 300.971h411.689v40H189.354zM189.354 433.283H450.65v40H189.354zM189.354 697.908h152.262v40H189.354zM189.354 565.596h615.265v40H189.354z" fill="" p-id="189989"></path><path d="M874.695 292.483L627.191 191.018l51.751-126.235s77.625-4.838 136.854 19.443c59.229 24.281 110.65 82.022 110.65 82.022l-51.751 126.235z" fill="#FFFFFF" p-id="189990"></path><path d="M695.63 84.39c12.055 0 30.757 0.562 51.399 3.241 23.637 3.067 44.221 8.148 61.18 15.1 40.776 16.716 78.492 51.564 94.804 67.947l-39.238 95.713-210.493-86.292 39.231-95.697c0.989-0.008 2.028-0.013 3.115-0.013h0.002m-0.002-19.999c-10.382 0-16.685 0.393-16.685 0.393l-51.751 126.236 247.504 101.465 51.751-126.236s-51.421-57.741-110.65-82.022C773.442 66.863 721.684 64.39 695.628 64.39z" fill="" p-id="189991"></path><path d="M854.5 239.833l-176.02-71.982 21.555-52.709s38.286-10.69 97.515 13.591 78.504 58.391 78.504 58.391L854.5 239.833z" fill="#F96765" p-id="189992"></path><path d="M634.75 172.586L882.387 273.85l-202.04 494.08L432.71 666.663z" fill="#FFFFFF" p-id="189993"></path><path d="M646.178 199.845l208.95 85.448L668.9 740.684l-208.95-85.448 186.228-455.391m-11.433-27.253L432.697 666.668l247.636 101.269L882.381 273.86 634.745 172.592z" fill="" p-id="189994"></path><path d="M634.75 172.586L882.387 273.85l-202.04 494.08L432.71 666.663z" fill="#FFFFFF" p-id="189995"></path><path d="M645.687 198.674l210.612 86.128-186.908 457.053-210.612-86.128 186.908-457.053m-10.942-26.082L432.697 666.668l247.636 101.269L882.381 273.86 634.745 172.592z" fill="" p-id="189996"></path><path d="M680.333 767.937L498.978 858l-66.281-191.332 7.889-19.292 247.636 101.269z" fill="#FFFFFF" p-id="189997"></path><path d="M456.989 675.692l199.69 81.661-146.242 72.626-53.448-154.287m-16.403-28.316l-7.889 19.292L498.978 858l181.355-90.063 7.889-19.292-247.636-101.269z" fill="" p-id="189998"></path><path d="M619.656 758.62l-100.434 49.877-36.707-105.96z" fill="#EFD6C5" p-id="189999"></path><path d="M657.23 219.824l176.02 71.979L657.869 720.69l-176.02-71.978z" fill="#00DFD4" p-id="190000"></path><path d="M535.507 660.862a9.962 9.962 0 0 1-3.781-0.747c-5.112-2.091-7.562-7.929-5.471-13.041l137.601-336.479c2.091-5.111 7.93-7.561 13.041-5.471 5.112 2.091 7.562 7.929 5.471 13.041l-137.601 336.48a10.003 10.003 0 0 1-9.26 6.217zM687.346 289.566a9.962 9.962 0 0 1-3.781-0.747c-5.111-2.09-7.562-7.929-5.471-13.041l12.22-29.883c2.09-5.11 7.929-7.562 13.041-5.471 5.111 2.09 7.562 7.929 5.471 13.041l-12.22 29.883a10.003 10.003 0 0 1-9.26 6.218z" fill="" p-id="190001"></path><path d="M644.51 629.92a9.962 9.962 0 0 1-3.781-0.747c-5.112-2.091-7.562-7.929-5.471-13.041l137.601-336.48c2.091-5.112 7.93-7.562 13.041-5.471 5.112 2.091 7.562 7.929 5.471 13.041L653.77 623.702a10.004 10.004 0 0 1-9.26 6.218zM618.052 694.619a9.962 9.962 0 0 1-3.781-0.747c-5.112-2.091-7.562-7.93-5.471-13.041l12.221-29.883c2.091-5.112 7.929-7.562 13.041-5.471s7.562 7.93 5.471 13.041l-12.221 29.883a10.004 10.004 0 0 1-9.26 6.218z" fill="" p-id="190002"></path><path d="M493.69 880.917a9.962 9.962 0 0 1-3.781-0.747c-5.112-2.091-7.562-7.929-5.471-13.041l12.915-31.582c2.091-5.112 7.929-7.561 13.041-5.471 5.112 2.091 7.561 7.929 5.471 13.041l-12.915 31.582a10.005 10.005 0 0 1-9.26 6.218z" fill="" p-id="190003"></path><path d="M689.865809 128.03319a40.18 20.09 22.241 1 0 74.381213 30.41652 40.18 20.09 22.241 1 0-74.381213-30.41652Z" fill="#FFFFFF" p-id="190004"></path><path d="M744.69 173.274c-8.603 0-18.117-2.032-27.516-5.875-10.779-4.408-20.124-10.73-26.313-17.803-7.162-8.184-9.49-16.646-6.554-23.826 3.26-7.971 12.409-12.543 25.104-12.543 8.603 0 18.117 2.032 27.516 5.875 24.367 9.965 38.497 27.861 32.868 41.627-3.261 7.973-12.411 12.545-25.105 12.545z m-35.279-48.046c-7.239 0-12.733 1.996-13.996 5.085-1.094 2.675 0.58 6.929 4.477 11.382 4.914 5.614 12.869 10.935 21.826 14.598 7.855 3.213 16.015 4.982 22.973 4.982 7.239 0 12.733-1.997 13.997-5.087 1.094-2.673-0.58-6.928-4.478-11.38-4.914-5.614-12.869-10.935-21.826-14.598-7.856-3.213-16.015-4.982-22.973-4.982z" fill="" p-id="190005"></path><path d="M731.169 139.509m-7.418 0a7.418 7.418 0 1 0 14.836 0 7.418 7.418 0 1 0-14.836 0Z" fill="" p-id="190006"></path><path d="M799.966863 173.060825a40.18 20.09 22.241 1 0 74.381214 30.41652 40.18 20.09 22.241 1 0-74.381214-30.41652Z" fill="#FFFFFF" p-id="190007"></path><path d="M854.792 218.304c-8.603 0-18.117-2.032-27.516-5.875-10.779-4.408-20.124-10.73-26.313-17.802-7.163-8.185-9.491-16.646-6.555-23.826 3.26-7.972 12.409-12.544 25.104-12.544 8.603 0 18.117 2.032 27.516 5.875 24.366 9.965 38.497 27.861 32.868 41.628-3.262 7.971-12.411 12.544-25.104 12.544z m-35.281-48.047c-7.239 0-12.733 1.997-13.996 5.086-1.094 2.675 0.58 6.929 4.477 11.381 4.914 5.614 12.87 10.935 21.827 14.598 7.855 3.213 16.014 4.982 22.973 4.982 7.239 0 12.732-1.996 13.996-5.086 1.094-2.674-0.58-6.928-4.478-11.381-4.914-5.614-12.869-10.935-21.826-14.598-7.856-3.213-16.014-4.982-22.973-4.982z" fill="" p-id="190008"></path><path d="M838.695 183.485m-7.418 0a7.418 7.418 0 1 0 14.836 0 7.418 7.418 0 1 0-14.836 0Z" fill="" p-id="190009"></path></svg>