<?xml version="1.0" standalone="no"?><!DOCTYPE svg PUBLIC "-//W3C//DTD SVG 1.1//EN" "http://www.w3.org/Graphics/SVG/1.1/DTD/svg11.dtd"><svg t="1752650516053" class="icon" viewBox="0 0 1024 1024" version="1.1" xmlns="http://www.w3.org/2000/svg" p-id="3544" xmlns:xlink="http://www.w3.org/1999/xlink" width="200" height="200"><path d="M884.605277 1021.952H134.144a56.908255 56.908255 0 0 1-56.864681-56.864681V78.21617A56.908255 56.908255 0 0 1 134.165787 21.351489h750.461277a56.908255 56.908255 0 0 1 56.864681 56.864681v886.892936a56.908255 56.908255 0 0 1-56.864681 56.864681zM134.144 66.843234a11.372936 11.372936 0 0 0-11.372936 11.372936v886.892936a11.372936 11.372936 0 0 0 11.372936 11.372937h750.461277a11.372936 11.372936 0 0 0 11.372936-11.372937V78.21617a11.372936 11.372936 0 0 0-11.372936-11.372936H134.144z" fill="#7365D2" p-id="3545"></path><path d="M245.76 924.802723l537.970383-2.59268c7.146213-0.043574 13.965617-1.982638 18.998468-5.446809 5.011064-3.442383 7.843404-8.126638 7.821617-12.963404-0.021787-4.858553-2.875915-9.499234-7.95234-12.898043a34.336681 34.336681 0 0 0-19.042043-5.250723l-537.948596 2.570893a34.336681 34.336681 0 0 0-18.998468 5.446809c-5.011064 3.46417-7.843404 8.126638-7.821617 12.963404 0.021787 4.858553 2.875915 9.499234 7.952341 12.898043 5.054638 3.398809 11.89583 5.294298 19.042042 5.27251zM245.76 830.529362L783.75217 827.914894c7.146213-0.021787 13.965617-1.982638 18.998468-5.446809 5.011064-3.442383 7.843404-8.104851 7.821617-12.963404-0.021787-4.836766-2.875915-9.477447-7.95234-12.898043a34.336681 34.336681 0 0 0-19.042043-5.250723l-537.948595 2.570894a34.314894 34.314894 0 0 0-18.998468 5.446808c-5.011064 3.46417-7.843404 8.126638-7.821618 12.963404 0.021787 4.858553 2.875915 9.499234 7.952341 12.898043 5.054638 3.420596 11.89583 5.294298 19.042042 5.27251z" fill="#7365D2" p-id="3546"></path><path d="M509.385532 701.309277a287.635064 287.635064 0 0 1-205.562553-85.754554 291.970723 291.970723 0 0 1-85.122724-207.087659c0-78.237957 30.218894-151.769872 85.122724-207.08766a287.656851 287.656851 0 0 1 205.540766-85.754553c77.671489 0 150.658723 30.436766 205.562553 85.754553a291.970723 291.970723 0 0 1 85.122723 207.08766c0 78.259745-30.218894 151.769872-85.122723 207.087659a287.635064 287.635064 0 0 1-205.562553 85.754554z m0-519.974128c-124.317957 0-225.454298 101.898894-225.454298 227.131915 0 125.233021 101.13634 227.131915 225.432511 227.131915 124.317957 0 225.454298-101.898894 225.454298-227.131915C734.730894 283.234043 633.681702 181.335149 509.385532 181.335149z" fill="#4485F7" p-id="3547"></path><path d="M490.648511 471.955064c-15.577872 0-28.127319-13.181277-28.12732-29.499915v-147.303489c0-16.318638 12.549447-29.499915 28.105532-29.499915 15.577872 0 28.149106 13.181277 28.149107 29.499915v147.21634c0 16.318638-12.658383 29.587064-28.127319 29.587064z" fill="#4485F7" p-id="3548"></path><path d="M604.726468 471.933277h-115.646638c-14.706383 0-26.580426-12.571234-26.580426-28.12732s11.874043-28.127319 26.580426-28.127319h115.646638c14.684596 0 26.580426 12.571234 26.580426 28.127319s-11.89583 28.127319-26.580426 28.12732z" fill="#4485F7" p-id="3549"></path></svg>