<?xml version="1.0" standalone="no"?><!DOCTYPE svg PUBLIC "-//W3C//DTD SVG 1.1//EN" "http://www.w3.org/Graphics/SVG/1.1/DTD/svg11.dtd"><svg t="1752564320357" class="icon" viewBox="0 0 1024 1024" version="1.1" xmlns="http://www.w3.org/2000/svg" p-id="5611" xmlns:xlink="http://www.w3.org/1999/xlink" width="200" height="200"><path d="M650.867071 875.675152H240.439596c-45.511111 0-82.747475-37.236364-82.747475-82.747475V236.864646c0-45.511111 37.236364-82.747475 82.747475-82.747474h410.427475c45.511111 0 82.747475 37.236364 82.747474 82.747474v556.063031c0 45.511111-37.236364 82.747475-82.747474 82.747475z m0 0" fill="#91B4FF" p-id="5612"></path><path d="M631.007677 855.815758H187.481212c-41.994343 0-76.127677-34.133333-76.127677-76.127677V190.526061c0-41.994343 34.133333-76.127677 76.127677-76.127677h8.791919c5.48202 0 9.929697 4.447677 9.929697 9.929697s-4.447677 9.929697-9.929697 9.929697h-8.791919c-31.030303 0-56.268283 25.23798-56.268283 56.268283v589.16202c0 31.030303 25.23798 56.268283 56.268283 56.268283H631.007677c31.030303 0 56.268283-25.23798 56.268283-56.268283V190.526061c0-31.030303-25.23798-56.268283-56.268283-56.268283H364.043636c-5.48202 0-9.929697-4.447677-9.929697-9.929697s4.447677-9.929697 9.929697-9.929697H631.007677c41.994343 0 76.127677 34.133333 76.127677 76.127677v589.16202c0 41.994343-34.133333 76.127677-76.127677 76.127677z m0 0" fill="#3778FF" p-id="5613"></path><path d="M277.986263 134.257778h-35.271111c-5.48202 0-9.929697-4.447677-9.929697-9.929697s4.447677-9.929697 9.929697-9.929697h35.271111c5.48202 0 9.929697 4.447677 9.929697 9.929697s-4.447677 9.929697-9.929697 9.929697z m0 0M528.400808 452.008081c-18.928485 0-29.065051-6.723232-37.132929-12.205253-6.723232-4.447677-11.584646-7.654141-22.445253-7.654141-10.860606 0-15.72202 3.206465-22.445252 7.654141-8.171313 5.378586-18.204444 12.205253-37.13293 12.205253-18.928485 0-28.961616-6.723232-37.132929-12.205253-6.723232-4.447677-11.584646-7.654141-22.445252-7.654141-10.860606 0-15.72202 3.206465-22.445253 7.654141-8.171313 5.378586-18.204444 12.205253-37.132929 12.205253-18.928485 0-28.961616-6.723232-37.132929-12.205253-6.723232-4.447677-11.584646-7.654141-22.445253-7.654141-7.343838 0-13.239596-5.895758-13.239596-13.239596 0-7.343838 5.895758-13.239596 13.239596-13.239596 18.928485 0 28.961616 6.723232 37.132929 12.205252 6.723232 4.447677 11.584646 7.654141 22.445253 7.654142 10.860606 0 15.72202-3.206465 22.445252-7.654142 8.171313-5.378586 18.204444-12.205253 37.13293-12.205252 18.928485 0 28.961616 6.723232 37.132929 12.205252 6.723232 4.447677 11.584646 7.654141 22.445252 7.654142 10.860606 0 15.72202-3.206465 22.445253-7.654142 8.067879-5.378586 18.204444-12.205253 37.132929-12.205252 18.928485 0 29.065051 6.723232 37.13293 12.205252 6.723232 4.447677 11.584646 7.654141 22.445252 7.654142 10.860606 0 15.72202-3.206465 22.445253-7.654142 8.171313-5.378586 18.204444-12.205253 37.132929-12.205252 7.343838 0 13.239596 5.895758 13.239596 13.239596 0 7.343838-5.895758 13.239596-13.239596 13.239596-10.860606 0-15.72202 3.206465-22.445253 7.654141-8.171313 5.48202-18.204444 12.205253-37.132929 12.205253zM531.710707 594.333737c-18.928485 0-29.065051-6.723232-37.132929-12.205252-6.723232-4.447677-11.584646-7.757576-22.445253-7.757576-10.860606 0-15.72202 3.206465-22.445252 7.757576-8.171313 5.378586-18.204444 12.205253-37.13293 12.205252-18.928485 0-28.961616-6.723232-37.132929-12.205252-6.723232-4.447677-11.584646-7.757576-22.445252-7.757576-10.860606 0-15.72202 3.206465-22.445253 7.757576-8.171313 5.48202-18.307879 12.205253-37.132929 12.205252-18.928485 0-28.961616-6.723232-37.132929-12.205252-6.723232-4.447677-11.584646-7.757576-22.445253-7.757576-7.343838 0-13.239596-5.895758-13.239596-13.239596 0-7.343838 5.895758-13.239596 13.239596-13.239596 18.928485 0 28.961616 6.723232 37.132929 12.205253 6.723232 4.447677 11.584646 7.757576 22.445253 7.757575 10.860606 0 15.72202-3.206465 22.445252-7.757575 8.171313-5.378586 18.204444-12.205253 37.13293-12.205253 18.928485 0 29.065051 6.723232 37.132929 12.205253 6.723232 4.447677 11.584646 7.757576 22.445252 7.757575 10.860606 0 15.72202-3.206465 22.445253-7.757575 8.171313-5.378586 18.204444-12.205253 37.132929-12.205253s29.065051 6.723232 37.13293 12.205253c6.723232 4.447677 11.584646 7.757576 22.445252 7.757575 10.860606 0 15.72202-3.206465 22.445253-7.757575 8.171313-5.378586 18.204444-12.205253 37.132929-12.205253 7.343838 0 13.239596 5.895758 13.239596 13.239596 0 7.343838-5.895758 13.239596-13.239596 13.239596-10.860606 0-15.72202 3.206465-22.445253 7.757576-8.171313 5.48202-18.204444 12.205253-37.132929 12.205252z m0 142.325657c-18.928485 0-29.065051-6.723232-37.132929-12.205253-6.723232-4.447677-11.584646-7.654141-22.445253-7.654141-10.860606 0-15.72202 3.206465-22.445252 7.654141-8.171313 5.378586-18.204444 12.205253-37.13293 12.205253-18.928485 0-28.961616-6.723232-37.132929-12.205253-6.723232-4.447677-11.584646-7.654141-22.445252-7.654141-10.860606 0-15.72202 3.206465-22.445253 7.654141-8.067879 5.378586-18.204444 12.205253-37.132929 12.205253-18.928485 0-28.961616-6.723232-37.132929-12.205253-6.723232-4.447677-11.584646-7.654141-22.445253-7.654141-7.343838 0-13.239596-5.895758-13.239596-13.239596 0-7.343838 5.895758-13.239596 13.239596-13.239596 18.928485 0 28.961616 6.723232 37.132929 12.205253 6.723232 4.447677 11.584646 7.757576 22.445253 7.757575 10.860606 0 15.72202-3.206465 22.445252-7.757575 8.171313-5.378586 18.204444-12.205253 37.13293-12.205253 18.928485 0 29.065051 6.723232 37.132929 12.205253 6.723232 4.447677 11.584646 7.757576 22.445252 7.757575 10.860606 0 15.72202-3.206465 22.445253-7.757575 8.171313-5.378586 18.204444-12.205253 37.132929-12.205253s29.065051 6.723232 37.13293 12.205253c6.723232 4.447677 11.584646 7.757576 22.445252 7.757575 10.860606 0 15.72202-3.206465 22.445253-7.757575 8.171313-5.378586 18.204444-12.205253 37.132929-12.205253 7.343838 0 13.239596 5.895758 13.239596 13.239596 0 7.343838-5.895758 13.239596-13.239596 13.239596-10.860606 0-15.72202 3.206465-22.445253 7.654141-8.171313 5.48202-18.204444 12.205253-37.132929 12.205253z m0 0" fill="#3778FF" p-id="5614"></path><path d="M546.191515 316.302222H265.677576c-28.444444 0-51.717172-23.272727-51.717172-51.717171v-2.482425c0-28.444444 23.272727-51.717172 51.717172-51.717171H546.191515c28.444444 0 51.717172 23.272727 51.717172 51.717171v2.482425c0 28.444444-23.272727 51.717172-51.717172 51.717171z m0 0" fill="#BCD1F7" p-id="5615"></path><path d="M554.88 733.349495c0 85.915152 69.650101 155.565253 155.565253 155.565252 85.915152 0 155.565253-69.650101 155.565252-155.565252 0-55.570101-29.646869-106.938182-77.782626-134.723232-48.135758-27.785051-107.429495-27.785051-155.565253 0-48.135758 27.785051-77.782626 79.140202-77.782626 134.723232z m0 0" fill="#91B4FF" p-id="5616"></path><path d="M740.234343 908.774141c-91.229091 0-165.494949-74.265859-165.494949-165.494949s74.265859-165.494949 165.494949-165.49495c45.821414 0 68.370101 14.687677 80.47192 22.548687l2.585858 1.65495c4.654545 2.896162 5.999192 9.102222 3.103031 13.756767-2.896162 4.654545-9.102222 5.999192-13.653334 3.103031l-2.792727-1.758384c-11.067475-7.240404-29.685657-19.342222-69.611313-19.342222-80.265051 0-145.635556 65.370505-145.635556 145.635555s65.267071 145.532121 145.532121 145.532121c80.265051 0 145.635556-65.370505 145.635556-145.635555 0-46.131717-14.170505-70.542222-35.47798-92.88404-3.827071-3.930505-3.620202-10.24 0.310303-14.067071s10.24-3.620202 14.067071 0.310303c21.307475 22.341818 40.96 50.786263 40.96 106.640808 0 91.229091-74.265859 165.494949-165.49495 165.494949z m0 0" fill="#3778FF" p-id="5617"></path><path d="M746.854141 759.828687h-79.437575c-5.48202 0-9.929697-4.447677-9.929697-9.929697s4.447677-9.929697 9.929697-9.929697h69.507878V650.60202c0-5.48202 4.447677-9.929697 9.929697-9.929697s9.929697 4.447677 9.929697 9.929697V749.89899c0 5.48202-4.447677 9.929697-9.929697 9.929697z m0 0" fill="#3778FF" p-id="5618"></path></svg>