<?xml version="1.0" standalone="no"?><!DOCTYPE svg PUBLIC "-//W3C//DTD SVG 1.1//EN" "http://www.w3.org/Graphics/SVG/1.1/DTD/svg11.dtd"><svg t="1752564622609" class="icon" viewBox="0 0 1024 1024" version="1.1" xmlns="http://www.w3.org/2000/svg" p-id="8742" xmlns:xlink="http://www.w3.org/1999/xlink" width="200" height="200"><path d="M480.978429 809.296278A251.236975 251.236975 0 0 1 732.215404 558.27988a244.619671 244.619671 0 0 1 78.745918 12.793454V98.156676A98.377253 98.377253 0 0 0 712.804646 0H175.258985A98.377253 98.377253 0 0 0 77.102309 98.156676v737.608818a98.377253 98.377253 0 0 0 98.156676 98.156676h339.247118a249.031207 249.031207 0 0 1-33.527674-124.625892z" fill="#28CDC7" p-id="8743"></path><path d="M743.244244 163.667985a22.05768 22.05768 0 0 1-22.05768-22.05768A49.409203 49.409203 0 0 0 672.659668 92.201102a22.05768 22.05768 0 0 1 0-44.11536 93.524563 93.524563 0 0 1 92.642256 93.524563 22.05768 22.05768 0 0 1-22.05768 22.05768zM624.353349 285.426379H263.710282a26.91037 26.91037 0 0 1 0-53.600162h360.643067a26.91037 26.91037 0 1 1 0 53.600162zM624.353349 474.240119H263.710282a26.91037 26.91037 0 0 1 0-53.600162h360.643067a26.91037 26.91037 0 1 1 0 53.600162zM430.025189 662.833283H263.710282a26.91037 26.91037 0 0 1 0-53.600162H430.025189a26.91037 26.91037 0 1 1 0 53.600162z" fill="#FFFFFF" p-id="8744"></path><path d="M732.324509 809.23768m-208.364772 33.822374a211.091997 211.091997 0 1 0 416.729544-67.644748 211.091997 211.091997 0 1 0-416.729544 67.644748Z" fill="#28CDC7" p-id="8745"></path><path d="M839.415729 904.364879h-219.032762a13.455185 13.455185 0 0 0 0 26.910369h219.032762a13.455185 13.455185 0 1 0 0-26.910369zM629.647192 886.718735h200.945465c9.484802 0 9.484802 0 9.484802-9.043649v-14.116915c0-9.043649-2.205768-11.02884-11.249417-11.02884h-36.395171a69.922846 69.922846 0 0 1-18.087298-18.969605 34.189404 34.189404 0 0 1-3.308652-33.968827 127.934544 127.934544 0 0 1 16.763837-29.116138 76.098996 76.098996 0 0 0-28.233831-112.714744 82.495723 82.495723 0 0 0-29.116137-7.499611 80.069378 80.069378 0 0 0-29.116138 7.499611 75.878419 75.878419 0 0 0-28.674984 112.714744 146.683572 146.683572 0 0 1 16.763837 29.116138 34.630558 34.630558 0 0 1-3.308652 33.968827 73.893228 73.893228 0 0 1-18.087298 18.969605h-36.395171c-9.264226 0-11.249417 1.985191-11.469994 11.02884v14.116915c0 9.043649 0 9.043649 9.484802 9.043649z" fill="#FFFFFF" p-id="8746"></path></svg>