<?xml version="1.0" standalone="no"?><!DOCTYPE svg PUBLIC "-//W3C//DTD SVG 1.1//EN" "http://www.w3.org/Graphics/SVG/1.1/DTD/svg11.dtd"><svg t="1751964746233" class="icon" viewBox="0 0 1419 1024" version="1.1" xmlns="http://www.w3.org/2000/svg" p-id="262777" xmlns:xlink="http://www.w3.org/1999/xlink" width="277.1484375" height="200"><path d="M917.566061 737.28H1229.317172c50.062222 0 91.022222 40.96 91.022222 91.022222V1001.244444H826.543838v-172.942222c0-50.062222 40.96-91.022222 91.022223-91.022222z" fill="#C3D3EE" p-id="262778"></path><path d="M917.566061 737.28h184.32c4.551111 0 9.102222 4.551111 9.102222 9.102222s-2.275556 6.826667-6.826667 9.102222c-72.817778 9.102222-125.155556 20.48-159.288889 38.684445-68.266667 34.133333-109.226667 104.675556-118.328889 211.626667v-177.493334c0-50.062222 40.96-91.022222 91.022223-91.022222z" fill="#A6B8D2" p-id="262779"></path><path d="M1302.134949 1001.244444h-500.622222v-200.248888c0-50.062222 40.96-91.022222 91.022222-91.022223h318.577778c50.062222 0 91.022222 40.96 91.022222 91.022223V1001.244444z m-486.968888-13.653333h473.315555v-186.595555c0-43.235556-34.133333-77.368889-77.368889-77.368889h-318.577778c-43.235556 0-77.368889 34.133333-77.368888 77.368889v186.595555z" fill="#182756" p-id="262780"></path><path d="M1001.761616 250.311111h159.288889c50.062222 0 91.022222 40.96 91.022222 91.022222v250.311111c0 50.062222-40.96 91.022222-91.022222 91.022223h-159.288889c-50.062222 0-91.022222-40.96-91.022222-91.022223V341.333333c0-50.062222 40.96-91.022222 91.022222-91.022222z" fill="#FEE5E4" p-id="262781"></path><path d="M1154.223838 682.666667h-145.635555c-54.613333 0-97.848889-43.235556-97.848889-97.848889V348.16c0-54.613333 43.235556-97.848889 97.848889-97.848889h145.635555c54.613333 0 97.848889 43.235556 97.848889 97.848889v236.657778c0 54.613333-43.235556 97.848889-97.848889 97.848889z m-145.635555-418.702223c-45.511111 0-84.195556 38.684444-84.195556 84.195556v236.657778c0 45.511111 38.684444 84.195556 84.195556 84.195555h145.635555c45.511111 0 84.195556-38.684444 84.195556-84.195555V348.16c0-45.511111-38.684444-84.195556-84.195556-84.195556h-145.635555z" fill="#182756" p-id="262782"></path><path d="M1252.072727 377.742222l-59.164444 70.542222-93.297778-43.235555C997.210505 455.111111 933.494949 484.693333 910.739394 491.52V341.333333c0-50.062222 40.96-91.022222 91.022222-91.022222h159.288889c50.062222 0 91.022222 40.96 91.022222 91.022222v36.408889z" fill="#FFEEEF" p-id="262783"></path><path d="M1001.761616 250.311111h159.288889c50.062222 0 91.022222 40.96 91.022222 91.022222v22.755556H910.739394v-22.755556c0-50.062222 40.96-91.022222 91.022222-91.022222z" fill="#FFFFFF" p-id="262784"></path><path d="M1252.072727 364.088889H910.739394v-22.755556c0-50.062222 40.96-91.022222 91.022222-91.022222h159.288889c50.062222 0 91.022222 40.96 91.022222 91.022222v22.755556z m-327.68-13.653333h314.026667V341.333333c0-43.235556-34.133333-77.368889-77.368889-77.368889h-159.288889c-43.235556 0-77.368889 34.133333-77.368889 77.368889v9.102223z" fill="#182756" p-id="262785"></path><path d="M1044.997172 716.8l-22.755556-2.275556v-45.511111H1161.050505v45.511111h-2.275556 2.275556l-13.653333 27.306667-65.991111 6.826667-61.44-31.857778h25.031111z" fill="#FFDACE" p-id="262786"></path><path d="M1033.619394 716.8c0 2.275556-2.275556 4.551111-2.275556 6.826667l-11.377777-6.826667h13.653333z m127.431111-36.408889l-120.604444 20.48-6.826667 13.653333h-11.377778v-45.511111h45.511111l93.297778 9.102223v2.275555z" fill="#FFEEEF" p-id="262787"></path><path d="M1083.681616 757.76l-81.92-13.653333v-75.093334h159.288889v75.093334l-77.368889 13.653333z m-68.266667-25.031111l68.266667 11.377778 63.715556-11.377778V682.666667h-131.982223v50.062222z" fill="#182756" p-id="262788"></path><path d="M935.770505 436.906667l166.115556-63.715556 91.022222 70.542222 52.337778-2.275555v-72.817778c0-50.062222-40.96-91.022222-91.022223-91.022222h-141.084444c-50.062222 0-91.022222 40.96-91.022222 91.022222v75.093333l13.653333-6.826666z" fill="#6378FF" p-id="262789"></path><path d="M1206.561616 293.546667c-131.982222-6.826667-168.391111 2.275556-216.177778 31.857777-27.306667 15.928889-38.684444 72.817778-50.062222 109.226667l-4.551111 2.275556-13.653333 6.826666v-75.093333c0-50.062222 40.96-91.022222 91.022222-91.022222h141.084444c18.204444 0 36.408889 4.551111 52.337778 15.928889z" fill="#7F94FF" p-id="262790"></path><path d="M890.259394 455.111111v-109.226667c0-54.613333 43.235556-97.848889 97.848889-97.848888h166.115555c52.337778 0 97.848889 43.235556 97.848889 95.573333v102.4h-63.715555l-91.022223-70.542222-182.044444 65.991111-25.031111 13.653333z m304.924444-20.48h43.235556v-88.746667c0-45.511111-38.684444-84.195556-84.195556-84.195555h-166.115555c-45.511111 0-84.195556 38.684444-84.195556 84.195555V432.355556l6.826667-2.275556 191.146667-68.266667 93.297777 72.817778z" fill="#182756" p-id="262791"></path><path d="M1252.072727 466.488889h18.204445c6.826667 0 11.377778 4.551111 11.377777 11.377778v27.306666L1252.072727 534.755556v-68.266667z" fill="#FFDACE" p-id="262792"></path><path d="M1240.694949 550.684444v-102.4h29.582223c9.102222 0 18.204444 9.102222 18.204444 18.204445v38.684444l-47.786667 45.511111z m13.653334-88.746666v56.888889l20.48-20.48v-31.857778c0-2.275556-2.275556-4.551111-4.551111-4.551111h-15.928889z" fill="#182756" p-id="262793"></path><path d="M899.361616 468.764444h-25.031111c-6.826667 0-11.377778 4.551111-11.377778 11.377778l-2.275555 31.857778c0-4.551111 2.275556-6.826667 4.551111-4.551111s13.653333 11.377778 34.133333 29.582222v-68.266667z" fill="#FFDACE" p-id="262794"></path><path d="M903.912727 550.684444l-47.786666-47.786666v-36.408889c0-9.102222 9.102222-18.204444 18.204444-18.204445h29.582222v102.4z m-36.408889-52.337777l20.48 20.48v-56.888889h-15.928889c-2.275556 0-4.551111 2.275556-4.551111 4.551111v31.857778z" fill="#182756" p-id="262795"></path><path d="M439.699394 737.28H637.672727c50.062222 0 91.022222 40.96 91.022222 91.022222V1001.244444H234.899394v-59.164444c0-111.502222 91.022222-204.8 204.8-204.8z" fill="#C3D3EE" p-id="262796"></path><path d="M439.699394 737.28h70.542222c6.826667 0 11.377778 4.551111 11.377778 11.377778 0 4.551111-4.551111 9.102222-9.102222 11.377778-56.888889 9.102222-100.124444 20.48-129.706667 34.133333-68.266667 34.133333-118.328889 102.4-147.911111 209.351111v-61.44c0-111.502222 91.022222-204.8 204.8-204.8z" fill="#E6ECF5" p-id="262797"></path><path d="M710.490505 1001.244444h-500.622222v-86.471111c0-113.777778 91.022222-204.8 204.8-204.8h204.8c50.062222 0 91.022222 40.96 91.022222 91.022223V1001.244444z m-486.968889-13.653333h473.315556v-186.595555c0-43.235556-34.133333-77.368889-77.368889-77.368889h-204.8c-104.675556 0-191.146667 86.471111-191.146667 191.146666v72.817778z" fill="#182756" p-id="262798"></path><path d="M455.628283 250.311111h113.777778c50.062222 0 91.022222 40.96 91.022222 91.022222v182.044445c0 88.746667-70.542222 159.288889-159.288889 159.288889h-22.755556c-88.746667 0-159.288889-70.542222-159.288889-159.288889v-136.533334c0-75.093333 61.44-136.533333 136.533334-136.533333z" fill="#FEE5E4" p-id="262799"></path><path d="M501.139394 682.666667h-22.755556c-88.746667 0-159.288889-70.542222-159.288889-159.288889v-136.533334c0-75.093333 61.44-136.533333 136.533334-136.533333h113.777778c50.062222 0 91.022222 40.96 91.022222 91.022222v182.044445c0 88.746667-70.542222 159.288889-159.288889 159.288889z m-45.511111-418.702223c-68.266667 0-122.88 54.613333-122.88 122.88v136.533334c0 79.644444 65.991111 145.635556 145.635555 145.635555h22.755556c79.644444 0 145.635556-65.991111 145.635555-145.635555v-182.044445c0-43.235556-34.133333-77.368889-77.368888-77.368889h-113.777778z" fill="#182756" p-id="262800"></path><path d="M660.428283 377.742222l-59.164445 70.542222-93.297777-43.235555C405.566061 455.111111 341.850505 484.693333 319.094949 491.52V386.844444c0-75.093333 61.44-136.533333 136.533334-136.533333h113.777778c50.062222 0 91.022222 40.96 91.022222 91.022222v36.408889z" fill="#FFEEEF" p-id="262801"></path><path d="M460.179394 250.311111H592.161616c50.062222 0 91.022222 40.96 91.022222 91.022222v47.786667H319.094949c2.275556-77.368889 63.715556-138.808889 141.084445-138.808889z" fill="#FFFFFF" p-id="262802"></path><path d="M680.908283 386.844444H319.094949v-6.826666c6.826667-72.817778 68.266667-129.706667 141.084445-129.706667H592.161616c50.062222 0 91.022222 40.96 91.022222 91.022222l-2.275555 45.511111z m-345.884445-13.653333h332.231111V341.333333c0-43.235556-34.133333-79.644444-77.368888-79.644444h-131.982223c-61.44 2.275556-116.053333 50.062222-122.88 111.502222z" fill="#182756" p-id="262803"></path><path d="M421.494949 682.666667H569.406061l-4.551112 122.88-138.808888-59.164445z" fill="#FFDACE" p-id="262804"></path><path d="M505.690505 682.666667l-63.715556 11.377777-15.928888 40.96-4.551112-52.337777h84.195556z" fill="#FFEEEF" p-id="262805"></path><path d="M462.454949 769.137778c-11.377778 0-22.755556-4.551111-31.857777-15.928889-15.928889-15.928889-22.755556-45.511111-20.48-81.92v-6.826667l81.92 6.826667H569.406061v75.093333l-77.368889 13.653334c-9.102222 4.551111-20.48 9.102222-29.582223 9.102222z m-38.684444-91.022222c0 29.582222 4.551111 52.337778 18.204444 65.991111 13.653333 13.653333 25.031111 13.653333 45.511112 2.275555l4.551111-2.275555 65.991111-11.377778V682.666667h-63.715556l-70.542222-4.551111z" fill="#182756" p-id="262806"></path><path d="M344.126061 436.906667l166.115555-63.715556 91.022222 70.542222 52.337778-2.275555v-72.817778c0-50.062222-40.96-91.022222-91.022222-91.022222h-95.573333c-75.093333 0-136.533333 61.44-136.533334 136.533333v29.582222l13.653334-6.826666z" fill="#6378FF" p-id="262807"></path><path d="M614.917172 293.546667c-131.982222-6.826667-168.391111 2.275556-216.177778 31.857777-27.306667 15.928889-38.684444 72.817778-50.062222 109.226667l-4.551111 2.275556-13.653334 6.826666v-29.582222c0-75.093333 61.44-136.533333 136.533334-136.533333h95.573333c18.204444 0 36.408889 4.551111 52.337778 15.928889z" fill="#7F94FF" p-id="262808"></path><path d="M319.094949 455.111111v-63.715555c0-79.644444 63.715556-143.36 143.36-143.36h100.124445c54.613333 0 97.848889 43.235556 97.848889 97.848888v102.4h-61.44l-86.471111-70.542222-168.391111 63.715556-25.031112 13.653333z m286.72-20.48h40.96v-88.746667c0-45.511111-38.684444-84.195556-84.195555-84.195555h-100.124445c-72.817778 0-129.706667 56.888889-129.706666 129.706667V432.355556l4.551111-2.275556 177.493333-68.266667 91.022222 72.817778z" fill="#182756" p-id="262809"></path><path d="M660.428283 466.488889h18.204444c6.826667 0 11.377778 4.551111 11.377778 11.377778v27.306666L660.428283 534.755556v-68.266667z" fill="#FFDACE" p-id="262810"></path><path d="M649.050505 550.684444v-102.4h29.582222c9.102222 0 18.204444 9.102222 18.204445 18.204445v38.684444l-47.786667 45.511111z m13.653333-88.746666v56.888889l20.48-20.48v-31.857778c0-2.275556-2.275556-4.551111-4.551111-4.551111h-15.928889z" fill="#182756" p-id="262811"></path><path d="M321.370505 468.764444H296.339394c-6.826667 0-11.377778 4.551111-11.377778 11.377778l-2.275555 31.857778c0-4.551111 2.275556-6.826667 4.551111-4.551111s13.653333 11.377778 34.133333 29.582222v-68.266667z" fill="#FFDACE" p-id="262812"></path><path d="M332.748283 550.684444l-47.786667-47.786666v-36.408889c0-9.102222 9.102222-18.204444 18.204445-18.204445h29.582222v102.4z m-34.133334-52.337777l20.48 20.48v-56.888889h-15.928888c-2.275556 0-4.551111 2.275556-4.551112 4.551111v31.857778z" fill="#182756" p-id="262813"></path><path d="M341.850505 589.368889c0 93.297778-13.653333 147.911111-43.235556 163.84 0 0 59.164444-43.235556 116.053334-38.684445 4.551111 0 0-50.062222 0-50.062222-22.755556-11.377778-47.786667-36.408889-72.817778-75.093333z" fill="#6378FF" p-id="262814"></path><path d="M300.890505 760.035556l-6.826667-11.377778s2.275556-2.275556 6.826667-4.551111c18.204444-15.928889 34.133333-54.613333 34.133333-154.737778v-22.755556l13.653334 18.204445c25.031111 36.408889 47.786667 61.44 70.542222 72.817778l2.275555 2.275555v4.551111c4.551111 50.062222 0 54.613333-2.275555 56.888889l-2.275556 2.275556h-4.551111c-40.96-4.551111-86.471111 20.48-104.675555 31.857777 0 0-2.275556 2.275556-6.826667 4.551112z m47.786667-147.911112c0 52.337778-6.826667 91.022222-18.204445 116.053334 22.755556-11.377778 50.062222-20.48 79.644445-20.48 0-6.826667 0-25.031111-2.275556-38.684445-18.204444-11.377778-38.684444-29.582222-59.164444-56.888889z" fill="#182756" p-id="262815"></path><path d="M546.650505 637.155556h409.6c50.062222 0 91.022222 40.96 91.022222 91.022222v259.413333H455.628283V728.177778c0-50.062222 40.96-91.022222 91.022222-91.022222z" fill="#FFFFFF" p-id="262816"></path><path d="M576.232727 671.288889H979.006061c50.062222 0 91.022222 40.96 91.022222 91.022222V1001.244444H485.210505V762.311111c0-50.062222 40.96-91.022222 91.022222-91.022222z" fill="#C3D3EE" p-id="262817"></path><path d="M576.232727 671.288889H979.006061c50.062222 0 91.022222 40.96 91.022222 91.022222V1001.244444H485.210505V762.311111c0-50.062222 40.96-91.022222 91.022222-91.022222z" fill="#C3D3EE" p-id="262818"></path><path d="M576.232727 671.288889h234.382222c6.826667 0 11.377778 4.551111 11.377778 11.377778 0 4.551111-4.551111 9.102222-9.102222 11.377777C728.694949 705.422222 667.254949 721.351111 626.294949 741.831111 544.374949 782.791111 496.588283 871.537778 485.210505 1005.795556V762.311111c0-50.062222 40.96-91.022222 91.022222-91.022222z" fill="#E6ECF5" p-id="262819"></path><path d="M1047.272727 1001.244444H455.628283V728.177778C455.628283 678.115556 496.588283 637.155556 546.650505 637.155556h409.6c50.062222 0 91.022222 40.96 91.022222 91.022222v273.066666z m-577.991111-13.653333h564.337778V728.177778c0-43.235556-34.133333-77.368889-77.368889-77.368889H546.650505C503.414949 650.808889 469.281616 684.942222 469.281616 728.177778v259.413333z" fill="#182756" p-id="262820"></path><path d="M558.028283 864.711111c6.826667 0 11.377778 4.551111 11.377778 11.377778v113.777778c0 6.826667-4.551111 11.377778-11.377778 11.377777s-11.377778-4.551111-11.377778-11.377777v-113.777778c0-6.826667 4.551111-11.377778 11.377778-11.377778z" fill="#30416B" p-id="262821"></path><path d="M944.872727 864.711111c6.826667 0 11.377778 4.551111 11.377778 11.377778v113.777778c0 6.826667-4.551111 11.377778-11.377778 11.377777s-11.377778-4.551111-11.377778-11.377777v-113.777778c0-6.826667 4.551111-11.377778 11.377778-11.377778z" fill="#30416B" p-id="262822"></path><path d="M658.152727 643.982222v350.435556h177.493334V643.982222z" fill="#FFFFFF" p-id="262823"></path><path d="M842.472727 1001.244444H651.326061V637.155556H842.472727v364.088888z m-177.493333-13.653333h163.84V650.808889H664.979394v336.782222z" fill="#182756" p-id="262824"></path><path d="M726.419394 730.453333h50.062222V1001.244444H705.939394z" fill="#FC3E78" p-id="262825"></path><path d="M776.481616 1001.244444H705.939394l20.48-270.791111h50.062222V1001.244444z m-56.888889-13.653333h40.96V744.106667h-22.755555l-18.204445 243.484444z" fill="#182756" p-id="262826"></path><path d="M637.672727 45.511111h227.555556c50.062222 0 91.022222 40.96 91.022222 91.022222v341.333334c0 50.062222-40.96 91.022222-91.022222 91.022222H637.672727c-50.062222 0-91.022222-40.96-91.022222-91.022222V136.533333c0-50.062222 40.96-91.022222 91.022222-91.022222z" fill="#FEE5E4" p-id="262827"></path><path d="M858.401616 568.888889h-213.902222c-54.613333 0-97.848889-43.235556-97.848889-97.848889V143.36C546.650505 88.746667 589.886061 45.511111 644.499394 45.511111h213.902222C913.014949 45.511111 956.250505 88.746667 956.250505 143.36v327.68c0 54.613333-43.235556 97.848889-97.848889 97.848889zM644.499394 59.164444c-45.511111 0-84.195556 38.684444-84.195556 84.195556v327.68c0 45.511111 38.684444 84.195556 84.195556 84.195556h213.902222c45.511111 0 84.195556-38.684444 84.195556-84.195556V143.36c0-45.511111-38.684444-84.195556-84.195556-84.195556h-213.902222z" fill="#182756" p-id="262828"></path><path d="M956.250505 200.248889l-70.542222 86.471111L774.206061 234.382222c-125.155556 61.44-200.248889 95.573333-227.555556 104.675556V136.533333c0-50.062222 40.96-91.022222 91.022222-91.022222h227.555556c50.062222 0 91.022222 40.96 91.022222 91.022222v63.715556z" fill="#FFEEEF" p-id="262829"></path><path d="M637.672727 45.511111h227.555556c50.062222 0 91.022222 40.96 91.022222 91.022222v29.582223H546.650505V136.533333c0-50.062222 40.96-91.022222 91.022222-91.022222z" fill="#FFFFFF" p-id="262830"></path><path d="M956.250505 166.115556H546.650505V136.533333c0-50.062222 40.96-91.022222 91.022222-91.022222h227.555556c50.062222 0 91.022222 40.96 91.022222 91.022222v29.582223z m-395.946667-13.653334h382.293334V136.533333c0-43.235556-34.133333-77.368889-77.368889-77.368889H637.672727c-43.235556 0-77.368889 34.133333-77.368889 77.368889v15.928889z" fill="#182756" p-id="262831"></path><path d="M683.183838 637.155556v-81.92h159.288889V637.155556h-2.275555L774.206061 705.422222l-50.062223-13.653333-45.511111-54.613333h4.551111z" fill="#FFDACE" p-id="262832"></path><path d="M842.472727 571.164444l-138.808889 20.48c-11.377778 36.408889-18.204444 52.337778-18.204444 52.337778s0-2.275556-2.275556-9.102222v-79.644444h50.062223l109.226666 11.377777v4.551111z" fill="#FFEEEF" p-id="262833"></path><path d="M728.694949 707.697778l-6.826666-2.275556 2.275555-13.653333h6.826667l4.551111 4.551111-6.826667 11.377778z m43.235556 0l-6.826667-11.377778 4.551111-4.551111h4.551112l2.275555 13.653333-4.551111 2.275556z" fill="#182756" p-id="262834"></path><path d="M726.419394 694.044444h50.062222v45.511112h-50.062222z" fill="#FC3E78" p-id="262835"></path><path d="M776.481616 739.555556h-50.062222v-45.511112h50.062222v45.511112z m-36.408889-13.653334h22.755556v-18.204444h-22.755556v18.204444z" fill="#182756" p-id="262836"></path><path d="M576.232727 273.066667l200.248889-79.644445 111.502222 86.471111 61.44-2.275555v-113.777778c0-50.062222-40.96-91.022222-91.022222-91.022222h-207.075555c-50.062222 0-91.022222 40.96-91.022223 91.022222v118.328889l15.928889-9.102222z" fill="#6378FF" p-id="262837"></path><path d="M915.290505 93.297778c-168.391111-9.102222-213.902222 2.275556-273.066667 38.684444-31.857778 20.48-45.511111 93.297778-59.164444 136.533334l-6.826667 4.551111-15.928889 9.102222V163.84c0-50.062222 40.96-91.022222 91.022223-91.022222h207.075555c20.48 0 40.96 6.826667 56.888889 20.48z" fill="#7F94FF" p-id="262838"></path><path d="M546.650505 295.822222V141.084444C546.650505 86.471111 589.886061 43.235556 644.499394 43.235556h211.626667c54.613333 0 97.848889 43.235556 97.848888 97.848888v145.635556h-68.266666l-109.226667-88.746667-204.8 81.92-25.031111 15.928889z m345.884444-22.755555h50.062223V141.084444c0-45.511111-38.684444-84.195556-84.195556-84.195555h-211.626667c-45.511111 0-84.195556 38.684444-84.195555 84.195555v129.706667l6.826667-4.551111L781.032727 182.044444l111.502222 91.022223z" fill="#182756" p-id="262839"></path><path d="M956.250505 295.822222h22.755556c6.826667 0 11.377778 4.551111 11.377777 11.377778v45.511111L956.250505 393.671111V295.822222z" fill="#FFFFFF" p-id="262840"></path><path d="M956.250505 311.751111h22.755556c6.826667 0 11.377778 4.551111 11.377777 11.377778v36.408889L956.250505 393.671111v-81.92z" fill="#FFDACE" p-id="262841"></path><path d="M942.597172 409.6v-120.604444H979.006061c9.102222 0 18.204444 9.102222 18.204444 18.204444v47.786667L942.597172 409.6z m13.653333-106.951111v75.093333l29.582222-27.306666v-43.235556c0-2.275556-2.275556-4.551111-4.551111-4.551111H956.250505z" fill="#182756" p-id="262842"></path><path d="M555.752727 314.026667l-31.857778-2.275556c-6.826667 0-11.377778 4.551111-11.377777 11.377778l-2.275556 40.96c2.275556-6.826667 2.275556-6.826667 4.551111-6.826667 2.275556 2.275556 15.928889 13.653333 40.96 36.408889v-79.644444z" fill="#FFDACE" p-id="262843"></path><path d="M560.303838 409.6l-56.888889-54.613333v-47.786667c0-9.102222 9.102222-18.204444 18.204445-18.204444h38.684444V409.6z m-43.235555-59.164444l29.582222 27.306666v-75.093333h-25.031111c-2.275556 0-4.551111 2.275556-4.551111 4.551111v43.235556zM725.327127 795.465956l41.642667-27.761778 6.326044 9.466311-41.642666 27.761778zM717.521972 876.680533l50.130489-35.498666 6.599111 9.284266-50.153245 35.498667zM711.946861 966.200889l56.593066-42.097778 6.781156 9.124978-56.593067 42.097778zM125.672727 987.591111H1388.606061v13.653333H125.672727zM23.272727 987.591111h65.991111v13.653333H23.272727z" fill="#182756" p-id="262844"></path><path d="M778.757172 705.422222h-52.337778l-50.062222-54.613333-2.275556-95.573333h172.942222v86.471111l-68.266666 63.715555z m-47.786667-13.653333h40.96l61.44-56.888889V568.888889h-145.635556v77.368889l43.235556 45.511111z" fill="#182756" p-id="262845"></path></svg>